<?xml version="1.0" encoding="UTF-8" standalone="no"?>
<!DOCTYPE svg PUBLIC "-//W3C//DTD SVG 1.1//EN"
 "http://www.w3.org/Graphics/SVG/1.1/DTD/svg11.dtd">
<!-- Generated by graphviz version 2.50.0 (0)
 -->
<!-- Pages: 1 -->
<svg width="674pt" height="176pt"
 viewBox="0.00 0.00 674.13 176.13" xmlns="http://www.w3.org/2000/svg" xmlns:xlink="http://www.w3.org/1999/xlink">
<g id="graph0" class="graph" transform="scale(1 1) rotate(0) translate(4 172.13)">
<polygon fill="white" stroke="transparent" points="-4,4 -4,-172.13 670.13,-172.13 670.13,4 -4,4"/>
<!-- &#45;561133109648795314 -->
<g id="node1" class="node">
<title>&#45;561133109648795314</title>
<ellipse fill="none" stroke="black" cx="48.07" cy="-48.07" rx="48.13" ry="48.13"/>
<text text-anchor="middle" x="48.07" y="-43.87" font-family="Helvetica,sans-Serif" font-size="14.00">read&#45;csv</text>
</g>
<!-- &#45;761257217869138755 -->
<g id="node2" class="node">
<title>&#45;761257217869138755</title>
<polygon fill="none" stroke="black" points="75.07,-168.13 21.07,-168.13 21.07,-132.13 75.07,-132.13 75.07,-168.13"/>
<text text-anchor="middle" x="48.07" y="-145.93" font-family="Helvetica,sans-Serif" font-size="14.00">0</text>
</g>
<!-- &#45;561133109648795314&#45;&gt;&#45;761257217869138755 -->
<g id="edge1" class="edge">
<title>&#45;561133109648795314&#45;&gt;&#45;761257217869138755</title>
<path fill="none" stroke="black" d="M48.07,-96.17C48.07,-104.95 48.07,-113.85 48.07,-121.79"/>
<polygon fill="black" stroke="black" points="44.57,-121.91 48.07,-131.91 51.57,-121.91 44.57,-121.91"/>
</g>
<!-- &#45;1365260014797368356 -->
<g id="node3" class="node">
<title>&#45;1365260014797368356</title>
<ellipse fill="none" stroke="black" cx="162.07" cy="-48.07" rx="48.13" ry="48.13"/>
<text text-anchor="middle" x="162.07" y="-43.87" font-family="Helvetica,sans-Serif" font-size="14.00">read&#45;csv</text>
</g>
<!-- 5746383538232859670 -->
<g id="node4" class="node">
<title>5746383538232859670</title>
<polygon fill="none" stroke="black" points="189.07,-168.13 135.07,-168.13 135.07,-132.13 189.07,-132.13 189.07,-168.13"/>
<text text-anchor="middle" x="162.07" y="-145.93" font-family="Helvetica,sans-Serif" font-size="14.00">1</text>
</g>
<!-- &#45;1365260014797368356&#45;&gt;5746383538232859670 -->
<g id="edge2" class="edge">
<title>&#45;1365260014797368356&#45;&gt;5746383538232859670</title>
<path fill="none" stroke="black" d="M162.07,-96.17C162.07,-104.95 162.07,-113.85 162.07,-121.79"/>
<polygon fill="black" stroke="black" points="158.57,-121.91 162.07,-131.91 165.57,-121.91 158.57,-121.91"/>
</g>
<!-- 2874059157641524252 -->
<g id="node5" class="node">
<title>2874059157641524252</title>
<ellipse fill="none" stroke="black" cx="276.07" cy="-48.07" rx="48.13" ry="48.13"/>
<text text-anchor="middle" x="276.07" y="-43.87" font-family="Helvetica,sans-Serif" font-size="14.00">read&#45;csv</text>
</g>
<!-- 853309509260163304 -->
<g id="node6" class="node">
<title>853309509260163304</title>
<polygon fill="none" stroke="black" points="303.07,-168.13 249.07,-168.13 249.07,-132.13 303.07,-132.13 303.07,-168.13"/>
<text text-anchor="middle" x="276.07" y="-145.93" font-family="Helvetica,sans-Serif" font-size="14.00">2</text>
</g>
<!-- 2874059157641524252&#45;&gt;853309509260163304 -->
<g id="edge3" class="edge">
<title>2874059157641524252&#45;&gt;853309509260163304</title>
<path fill="none" stroke="black" d="M276.07,-96.17C276.07,-104.95 276.07,-113.85 276.07,-121.79"/>
<polygon fill="black" stroke="black" points="272.57,-121.91 276.07,-131.91 279.57,-121.91 272.57,-121.91"/>
</g>
<!-- &#45;8487962705496334789 -->
<g id="node7" class="node">
<title>&#45;8487962705496334789</title>
<ellipse fill="none" stroke="black" cx="390.07" cy="-48.07" rx="48.13" ry="48.13"/>
<text text-anchor="middle" x="390.07" y="-43.87" font-family="Helvetica,sans-Serif" font-size="14.00">read&#45;csv</text>
</g>
<!-- 7360950265362161729 -->
<g id="node8" class="node">
<title>7360950265362161729</title>
<polygon fill="none" stroke="black" points="417.07,-168.13 363.07,-168.13 363.07,-132.13 417.07,-132.13 417.07,-168.13"/>
<text text-anchor="middle" x="390.07" y="-145.93" font-family="Helvetica,sans-Serif" font-size="14.00">3</text>
</g>
<!-- &#45;8487962705496334789&#45;&gt;7360950265362161729 -->
<g id="edge4" class="edge">
<title>&#45;8487962705496334789&#45;&gt;7360950265362161729</title>
<path fill="none" stroke="black" d="M390.07,-96.17C390.07,-104.95 390.07,-113.85 390.07,-121.79"/>
<polygon fill="black" stroke="black" points="386.57,-121.91 390.07,-131.91 393.57,-121.91 386.57,-121.91"/>
</g>
<!-- 8921941955940896184 -->
<g id="node9" class="node">
<title>8921941955940896184</title>
<ellipse fill="none" stroke="black" cx="504.07" cy="-48.07" rx="48.13" ry="48.13"/>
<text text-anchor="middle" x="504.07" y="-43.87" font-family="Helvetica,sans-Serif" font-size="14.00">read&#45;csv</text>
</g>
<!-- &#45;1930481146594902765 -->
<g id="node10" class="node">
<title>&#45;1930481146594902765</title>
<polygon fill="none" stroke="black" points="531.07,-168.13 477.07,-168.13 477.07,-132.13 531.07,-132.13 531.07,-168.13"/>
<text text-anchor="middle" x="504.07" y="-145.93" font-family="Helvetica,sans-Serif" font-size="14.00">4</text>
</g>
<!-- 8921941955940896184&#45;&gt;&#45;1930481146594902765 -->
<g id="edge5" class="edge">
<title>8921941955940896184&#45;&gt;&#45;1930481146594902765</title>
<path fill="none" stroke="black" d="M504.07,-96.17C504.07,-104.95 504.07,-113.85 504.07,-121.79"/>
<polygon fill="black" stroke="black" points="500.57,-121.91 504.07,-131.91 507.57,-121.91 500.57,-121.91"/>
</g>
<!-- 8117815050792323142 -->
<g id="node11" class="node">
<title>8117815050792323142</title>
<ellipse fill="none" stroke="black" cx="618.07" cy="-48.07" rx="48.13" ry="48.13"/>
<text text-anchor="middle" x="618.07" y="-43.87" font-family="Helvetica,sans-Serif" font-size="14.00">read&#45;csv</text>
</g>
<!-- 4577159609507095660 -->
<g id="node12" class="node">
<title>4577159609507095660</title>
<polygon fill="none" stroke="black" points="645.07,-168.13 591.07,-168.13 591.07,-132.13 645.07,-132.13 645.07,-168.13"/>
<text text-anchor="middle" x="618.07" y="-145.93" font-family="Helvetica,sans-Serif" font-size="14.00">5</text>
</g>
<!-- 8117815050792323142&#45;&gt;4577159609507095660 -->
<g id="edge6" class="edge">
<title>8117815050792323142&#45;&gt;4577159609507095660</title>
<path fill="none" stroke="black" d="M618.07,-96.17C618.07,-104.95 618.07,-113.85 618.07,-121.79"/>
<polygon fill="black" stroke="black" points="614.57,-121.91 618.07,-131.91 621.57,-121.91 614.57,-121.91"/>
</g>
</g>
</svg>
