<?xml version="1.0" encoding="UTF-8" standalone="no"?>
<!DOCTYPE svg PUBLIC "-//W3C//DTD SVG 1.1//EN"
 "http://www.w3.org/Graphics/SVG/1.1/DTD/svg11.dtd">
<!-- Generated by graphviz version 12.0.0 (20240704.0754)
 -->
<!-- Pages: 1 -->
<svg width="626pt" height="779pt"
 viewBox="0.00 0.00 626.29 778.98" xmlns="http://www.w3.org/2000/svg" xmlns:xlink="http://www.w3.org/1999/xlink">
<g id="graph0" class="graph" transform="scale(1 1) rotate(0) translate(4 774.98)">
<polygon fill="white" stroke="none" points="-4,4 -4,-774.98 622.29,-774.98 622.29,4 -4,4"/>
<!-- 4428515066662355630 -->
<g id="node1" class="node">
<title>4428515066662355630</title>
<ellipse fill="none" stroke="black" cx="66.38" cy="-482.48" rx="27.3" ry="27.3"/>
<text text-anchor="middle" x="66.38" y="-477.43" font-family="Helvetica,sans-Serif" font-size="14.00">add</text>
</g>
<!-- &#45;2723472552465415063 -->
<g id="node2" class="node">
<title>&#45;2723472552465415063</title>
<polygon fill="none" stroke="black" points="93.38,-608.39 39.38,-608.39 39.38,-572.39 93.38,-572.39 93.38,-608.39"/>
<text text-anchor="middle" x="66.38" y="-585.34" font-family="Helvetica,sans-Serif" font-size="14.00">(0, 0)</text>
</g>
<!-- 4428515066662355630&#45;&gt;&#45;2723472552465415063 -->
<g id="edge1" class="edge">
<title>4428515066662355630&#45;&gt;&#45;2723472552465415063</title>
<path fill="none" stroke="black" d="M66.38,-510.21C66.38,-525.64 66.38,-545.04 66.38,-560.78"/>
<polygon fill="black" stroke="black" points="62.88,-560.46 66.38,-570.46 69.88,-560.46 62.88,-560.46"/>
</g>
<!-- 5510907626795402461 -->
<g id="node3" class="node">
<title>5510907626795402461</title>
<polygon fill="none" stroke="black" points="79.38,-176.75 25.38,-176.75 25.38,-140.75 79.38,-140.75 79.38,-176.75"/>
<text text-anchor="middle" x="52.38" y="-153.7" font-family="Helvetica,sans-Serif" font-size="14.00">(0, 0)</text>
</g>
<!-- 5510907626795402461&#45;&gt;4428515066662355630 -->
<g id="edge2" class="edge">
<title>5510907626795402461&#45;&gt;4428515066662355630</title>
<path fill="none" stroke="black" d="M51.97,-176.93C51.74,-187.31 51.49,-200.79 51.38,-212.75 50.92,-260.67 49.15,-272.7 51.38,-320.57 53.34,-362.88 58.21,-411.25 61.87,-443.81"/>
<polygon fill="black" stroke="black" points="58.37,-444.01 62.98,-453.55 65.32,-443.22 58.37,-444.01"/>
</g>
<!-- &#45;1357517840410974377 -->
<g id="node21" class="node">
<title>&#45;1357517840410974377</title>
<ellipse fill="none" stroke="black" cx="114.38" cy="-266.66" rx="53.91" ry="53.91"/>
<text text-anchor="middle" x="114.38" y="-261.61" font-family="Helvetica,sans-Serif" font-size="14.00">transpose</text>
</g>
<!-- 5510907626795402461&#45;&gt;&#45;1357517840410974377 -->
<g id="edge18" class="edge">
<title>5510907626795402461&#45;&gt;&#45;1357517840410974377</title>
<path fill="none" stroke="black" d="M62.61,-177.24C67.99,-186.42 74.9,-198.23 81.91,-210.21"/>
<polygon fill="black" stroke="black" points="78.7,-211.64 86.77,-218.5 84.74,-208.1 78.7,-211.64"/>
</g>
<!-- 7193670944200537271 -->
<g id="node4" class="node">
<title>7193670944200537271</title>
<polygon fill="none" stroke="black" points="127.38,-392.57 73.38,-392.57 73.38,-356.57 127.38,-356.57 127.38,-392.57"/>
<text text-anchor="middle" x="100.38" y="-369.52" font-family="Helvetica,sans-Serif" font-size="14.00">(0, 0)</text>
</g>
<!-- 7193670944200537271&#45;&gt;4428515066662355630 -->
<g id="edge3" class="edge">
<title>7193670944200537271&#45;&gt;4428515066662355630</title>
<path fill="none" stroke="black" d="M94.76,-393.06C90.22,-407.2 83.68,-427.58 78.02,-445.22"/>
<polygon fill="black" stroke="black" points="74.73,-444.01 75.01,-454.6 81.4,-446.14 74.73,-444.01"/>
</g>
<!-- 6237078692522834954 -->
<g id="node5" class="node">
<title>6237078692522834954</title>
<ellipse fill="none" stroke="black" cx="286.38" cy="-671.69" rx="27.3" ry="27.3"/>
<text text-anchor="middle" x="286.38" y="-666.64" font-family="Helvetica,sans-Serif" font-size="14.00">add</text>
</g>
<!-- &#45;614189179347784766 -->
<g id="node6" class="node">
<title>&#45;614189179347784766</title>
<polygon fill="none" stroke="black" points="313.38,-770.98 259.38,-770.98 259.38,-734.98 313.38,-734.98 313.38,-770.98"/>
<text text-anchor="middle" x="286.38" y="-747.93" font-family="Helvetica,sans-Serif" font-size="14.00">(0, 1)</text>
</g>
<!-- 6237078692522834954&#45;&gt;&#45;614189179347784766 -->
<g id="edge4" class="edge">
<title>6237078692522834954&#45;&gt;&#45;614189179347784766</title>
<path fill="none" stroke="black" d="M286.38,-699.09C286.38,-706.87 286.38,-715.42 286.38,-723.33"/>
<polygon fill="black" stroke="black" points="282.88,-723.16 286.38,-733.16 289.88,-723.16 282.88,-723.16"/>
</g>
<!-- &#45;4745432373407015920 -->
<g id="node7" class="node">
<title>&#45;4745432373407015920</title>
<polygon fill="none" stroke="black" points="391.38,-608.39 337.38,-608.39 337.38,-572.39 391.38,-572.39 391.38,-608.39"/>
<text text-anchor="middle" x="364.38" y="-585.34" font-family="Helvetica,sans-Serif" font-size="14.00">(0, 1)</text>
</g>
<!-- &#45;4745432373407015920&#45;&gt;6237078692522834954 -->
<g id="edge5" class="edge">
<title>&#45;4745432373407015920&#45;&gt;6237078692522834954</title>
<path fill="none" stroke="black" d="M347.45,-608.6C337.43,-618.79 324.5,-631.93 313.13,-643.49"/>
<polygon fill="black" stroke="black" points="310.76,-640.91 306.24,-650.49 315.75,-645.82 310.76,-640.91"/>
</g>
<!-- &#45;6428195690812150730 -->
<g id="node8" class="node">
<title>&#45;6428195690812150730</title>
<polygon fill="none" stroke="black" points="264.38,-176.75 210.38,-176.75 210.38,-140.75 264.38,-140.75 264.38,-176.75"/>
<text text-anchor="middle" x="237.38" y="-153.7" font-family="Helvetica,sans-Serif" font-size="14.00">(0, 1)</text>
</g>
<!-- &#45;6428195690812150730&#45;&gt;6237078692522834954 -->
<g id="edge6" class="edge">
<title>&#45;6428195690812150730&#45;&gt;6237078692522834954</title>
<path fill="none" stroke="black" d="M228.79,-177C224.1,-187.16 218.6,-200.41 215.38,-212.75 197.18,-282.39 196.38,-301.6 196.38,-373.57 196.38,-373.57 196.38,-373.57 196.38,-483.48 196.38,-544.39 235.55,-606.42 262.21,-641.58"/>
<polygon fill="black" stroke="black" points="259.19,-643.4 268.09,-649.14 264.72,-639.1 259.19,-643.4"/>
</g>
<!-- &#45;1476160783108536615 -->
<g id="node23" class="node">
<title>&#45;1476160783108536615</title>
<ellipse fill="none" stroke="black" cx="278.38" cy="-266.66" rx="53.91" ry="53.91"/>
<text text-anchor="middle" x="278.38" y="-261.61" font-family="Helvetica,sans-Serif" font-size="14.00">transpose</text>
</g>
<!-- &#45;6428195690812150730&#45;&gt;&#45;1476160783108536615 -->
<g id="edge22" class="edge">
<title>&#45;6428195690812150730&#45;&gt;&#45;1476160783108536615</title>
<path fill="none" stroke="black" d="M244.15,-177.24C247.25,-185.26 251.13,-195.29 255.16,-205.68"/>
<polygon fill="black" stroke="black" points="251.78,-206.67 258.66,-214.73 258.31,-204.14 251.78,-206.67"/>
</g>
<!-- 155014601477483338 -->
<g id="node9" class="node">
<title>155014601477483338</title>
<ellipse fill="none" stroke="black" cx="278.38" cy="-482.48" rx="27.3" ry="27.3"/>
<text text-anchor="middle" x="278.38" y="-477.43" font-family="Helvetica,sans-Serif" font-size="14.00">add</text>
</g>
<!-- 570044798602161946 -->
<g id="node10" class="node">
<title>570044798602161946</title>
<polygon fill="none" stroke="black" points="305.38,-608.39 251.38,-608.39 251.38,-572.39 305.38,-572.39 305.38,-608.39"/>
<text text-anchor="middle" x="278.38" y="-585.34" font-family="Helvetica,sans-Serif" font-size="14.00">(1, 0)</text>
</g>
<!-- 155014601477483338&#45;&gt;570044798602161946 -->
<g id="edge7" class="edge">
<title>155014601477483338&#45;&gt;570044798602161946</title>
<path fill="none" stroke="black" d="M278.38,-510.21C278.38,-525.64 278.38,-545.04 278.38,-560.78"/>
<polygon fill="black" stroke="black" points="274.88,-560.46 278.38,-570.46 281.88,-560.46 274.88,-560.46"/>
</g>
<!-- &#45;7484045177934129231 -->
<g id="node11" class="node">
<title>&#45;7484045177934129231</title>
<polygon fill="none" stroke="black" points="404.38,-392.57 350.38,-392.57 350.38,-356.57 404.38,-356.57 404.38,-392.57"/>
<text text-anchor="middle" x="377.38" y="-369.52" font-family="Helvetica,sans-Serif" font-size="14.00">(1, 0)</text>
</g>
<!-- &#45;7484045177934129231&#45;&gt;155014601477483338 -->
<g id="edge8" class="edge">
<title>&#45;7484045177934129231&#45;&gt;155014601477483338</title>
<path fill="none" stroke="black" d="M353.57,-393.06C341.16,-402.78 326.16,-415.52 314.38,-428.57 308.69,-434.86 303.2,-442.11 298.29,-449.17"/>
<polygon fill="black" stroke="black" points="295.48,-447.08 292.83,-457.34 301.3,-450.97 295.48,-447.08"/>
</g>
<!-- &#45;9207674034194404244 -->
<g id="node22" class="node">
<title>&#45;9207674034194404244</title>
<ellipse fill="none" stroke="black" cx="377.38" cy="-482.48" rx="53.91" ry="53.91"/>
<text text-anchor="middle" x="377.38" y="-477.43" font-family="Helvetica,sans-Serif" font-size="14.00">transpose</text>
</g>
<!-- &#45;7484045177934129231&#45;&gt;&#45;9207674034194404244 -->
<g id="edge20" class="edge">
<title>&#45;7484045177934129231&#45;&gt;&#45;9207674034194404244</title>
<path fill="none" stroke="black" d="M377.38,-393.06C377.38,-399.92 377.38,-408.24 377.38,-417.01"/>
<polygon fill="black" stroke="black" points="373.88,-416.77 377.38,-426.77 380.88,-416.77 373.88,-416.77"/>
</g>
<!-- 9154970480444659706 -->
<g id="node12" class="node">
<title>9154970480444659706</title>
<polygon fill="none" stroke="black" points="305.38,-392.57 251.38,-392.57 251.38,-356.57 305.38,-356.57 305.38,-392.57"/>
<text text-anchor="middle" x="278.38" y="-369.52" font-family="Helvetica,sans-Serif" font-size="14.00">(1, 0)</text>
</g>
<!-- 9154970480444659706&#45;&gt;155014601477483338 -->
<g id="edge9" class="edge">
<title>9154970480444659706&#45;&gt;155014601477483338</title>
<path fill="none" stroke="black" d="M278.38,-393.06C278.38,-406.71 278.38,-426.19 278.38,-443.38"/>
<polygon fill="black" stroke="black" points="274.88,-443.31 278.38,-453.31 281.88,-443.31 274.88,-443.31"/>
</g>
<!-- &#45;649112303671089704 -->
<g id="node13" class="node">
<title>&#45;649112303671089704</title>
<ellipse fill="none" stroke="black" cx="509.38" cy="-482.48" rx="27.3" ry="27.3"/>
<text text-anchor="middle" x="509.38" y="-477.43" font-family="Helvetica,sans-Serif" font-size="14.00">add</text>
</g>
<!-- 7077685554704160371 -->
<g id="node14" class="node">
<title>7077685554704160371</title>
<polygon fill="none" stroke="black" points="536.38,-608.39 482.38,-608.39 482.38,-572.39 536.38,-572.39 536.38,-608.39"/>
<text text-anchor="middle" x="509.38" y="-585.34" font-family="Helvetica,sans-Serif" font-size="14.00">(1, 1)</text>
</g>
<!-- &#45;649112303671089704&#45;&gt;7077685554704160371 -->
<g id="edge10" class="edge">
<title>&#45;649112303671089704&#45;&gt;7077685554704160371</title>
<path fill="none" stroke="black" d="M509.38,-510.21C509.38,-525.64 509.38,-545.04 509.38,-560.78"/>
<polygon fill="black" stroke="black" points="505.88,-560.46 509.38,-570.46 512.88,-560.46 505.88,-560.46"/>
</g>
<!-- &#45;976404421832130806 -->
<g id="node15" class="node">
<title>&#45;976404421832130806</title>
<polygon fill="none" stroke="black" points="550.38,-176.75 496.38,-176.75 496.38,-140.75 550.38,-140.75 550.38,-176.75"/>
<text text-anchor="middle" x="523.38" y="-153.7" font-family="Helvetica,sans-Serif" font-size="14.00">(1, 1)</text>
</g>
<!-- &#45;976404421832130806&#45;&gt;&#45;649112303671089704 -->
<g id="edge11" class="edge">
<title>&#45;976404421832130806&#45;&gt;&#45;649112303671089704</title>
<path fill="none" stroke="black" d="M514.24,-176.87C509.37,-186.99 503.87,-200.24 501.38,-212.75 485.18,-294.03 495.3,-391.85 503.02,-444.15"/>
<polygon fill="black" stroke="black" points="499.51,-444.37 504.49,-453.72 506.43,-443.3 499.51,-444.37"/>
</g>
<!-- 5608561427463155960 -->
<g id="node24" class="node">
<title>5608561427463155960</title>
<ellipse fill="none" stroke="black" cx="564.38" cy="-266.66" rx="53.91" ry="53.91"/>
<text text-anchor="middle" x="564.38" y="-261.61" font-family="Helvetica,sans-Serif" font-size="14.00">transpose</text>
</g>
<!-- &#45;976404421832130806&#45;&gt;5608561427463155960 -->
<g id="edge24" class="edge">
<title>&#45;976404421832130806&#45;&gt;5608561427463155960</title>
<path fill="none" stroke="black" d="M530.15,-177.24C533.25,-185.26 537.13,-195.29 541.16,-205.68"/>
<polygon fill="black" stroke="black" points="537.78,-206.67 544.66,-214.73 544.31,-204.14 537.78,-206.67"/>
</g>
<!-- &#45;2784132837162893485 -->
<g id="node16" class="node">
<title>&#45;2784132837162893485</title>
<polygon fill="none" stroke="black" points="577.38,-392.57 523.38,-392.57 523.38,-356.57 577.38,-356.57 577.38,-392.57"/>
<text text-anchor="middle" x="550.38" y="-369.52" font-family="Helvetica,sans-Serif" font-size="14.00">(1, 1)</text>
</g>
<!-- &#45;2784132837162893485&#45;&gt;&#45;649112303671089704 -->
<g id="edge12" class="edge">
<title>&#45;2784132837162893485&#45;&gt;&#45;649112303671089704</title>
<path fill="none" stroke="black" d="M543.6,-393.06C538.07,-407.36 530.06,-428.06 523.18,-445.83"/>
<polygon fill="black" stroke="black" points="519.96,-444.44 519.62,-455.03 526.49,-446.96 519.96,-444.44"/>
</g>
<!-- 7267729113091098004 -->
<g id="node17" class="node">
<title>7267729113091098004</title>
<ellipse fill="none" stroke="black" cx="52.38" cy="-52.38" rx="52.38" ry="52.38"/>
<text text-anchor="middle" x="52.38" y="-47.33" font-family="Helvetica,sans-Serif" font-size="14.00">ones_like</text>
</g>
<!-- 7267729113091098004&#45;&gt;5510907626795402461 -->
<g id="edge13" class="edge">
<title>7267729113091098004&#45;&gt;5510907626795402461</title>
<path fill="none" stroke="black" d="M52.38,-104.95C52.38,-113.21 52.38,-121.49 52.38,-128.96"/>
<polygon fill="black" stroke="black" points="48.88,-128.76 52.38,-138.76 55.88,-128.76 48.88,-128.76"/>
</g>
<!-- &#45;4094292750046761037 -->
<g id="node18" class="node">
<title>&#45;4094292750046761037</title>
<ellipse fill="none" stroke="black" cx="237.38" cy="-52.38" rx="52.38" ry="52.38"/>
<text text-anchor="middle" x="237.38" y="-47.33" font-family="Helvetica,sans-Serif" font-size="14.00">ones_like</text>
</g>
<!-- &#45;4094292750046761037&#45;&gt;&#45;6428195690812150730 -->
<g id="edge14" class="edge">
<title>&#45;4094292750046761037&#45;&gt;&#45;6428195690812150730</title>
<path fill="none" stroke="black" d="M237.38,-104.95C237.38,-113.21 237.38,-121.49 237.38,-128.96"/>
<polygon fill="black" stroke="black" points="233.88,-128.76 237.38,-138.76 240.88,-128.76 233.88,-128.76"/>
</g>
<!-- &#45;1085037580043444289 -->
<g id="node19" class="node">
<title>&#45;1085037580043444289</title>
<ellipse fill="none" stroke="black" cx="402.38" cy="-266.66" rx="52.38" ry="52.38"/>
<text text-anchor="middle" x="402.38" y="-261.61" font-family="Helvetica,sans-Serif" font-size="14.00">ones_like</text>
</g>
<!-- &#45;1085037580043444289&#45;&gt;&#45;7484045177934129231 -->
<g id="edge15" class="edge">
<title>&#45;1085037580043444289&#45;&gt;&#45;7484045177934129231</title>
<path fill="none" stroke="black" d="M390.46,-318.13C388.27,-327.4 386.06,-336.78 384.09,-345.11"/>
<polygon fill="black" stroke="black" points="380.74,-344.07 381.85,-354.61 387.55,-345.68 380.74,-344.07"/>
</g>
<!-- &#45;8048702060196935202 -->
<g id="node20" class="node">
<title>&#45;8048702060196935202</title>
<ellipse fill="none" stroke="black" cx="523.38" cy="-52.38" rx="52.38" ry="52.38"/>
<text text-anchor="middle" x="523.38" y="-47.33" font-family="Helvetica,sans-Serif" font-size="14.00">ones_like</text>
</g>
<!-- &#45;8048702060196935202&#45;&gt;&#45;976404421832130806 -->
<g id="edge16" class="edge">
<title>&#45;8048702060196935202&#45;&gt;&#45;976404421832130806</title>
<path fill="none" stroke="black" d="M523.38,-104.95C523.38,-113.21 523.38,-121.49 523.38,-128.96"/>
<polygon fill="black" stroke="black" points="519.88,-128.76 523.38,-138.76 526.88,-128.76 519.88,-128.76"/>
</g>
<!-- &#45;1357517840410974377&#45;&gt;7193670944200537271 -->
<g id="edge17" class="edge">
<title>&#45;1357517840410974377&#45;&gt;7193670944200537271</title>
<path fill="none" stroke="black" d="M107.38,-320.62C106.28,-328.93 105.18,-337.25 104.19,-344.74"/>
<polygon fill="black" stroke="black" points="100.73,-344.21 102.89,-354.58 107.67,-345.13 100.73,-344.21"/>
</g>
<!-- &#45;9207674034194404244&#45;&gt;&#45;4745432373407015920 -->
<g id="edge19" class="edge">
<title>&#45;9207674034194404244&#45;&gt;&#45;4745432373407015920</title>
<path fill="none" stroke="black" d="M370.88,-536.44C369.85,-544.75 368.83,-553.07 367.91,-560.57"/>
<polygon fill="black" stroke="black" points="364.45,-560.05 366.71,-570.4 371.4,-560.9 364.45,-560.05"/>
</g>
<!-- &#45;1476160783108536615&#45;&gt;9154970480444659706 -->
<g id="edge21" class="edge">
<title>&#45;1476160783108536615&#45;&gt;9154970480444659706</title>
<path fill="none" stroke="black" d="M278.38,-320.93C278.38,-329.21 278.38,-337.48 278.38,-344.94"/>
<polygon fill="black" stroke="black" points="274.88,-344.69 278.38,-354.69 281.88,-344.69 274.88,-344.69"/>
</g>
<!-- 5608561427463155960&#45;&gt;&#45;2784132837162893485 -->
<g id="edge23" class="edge">
<title>5608561427463155960&#45;&gt;&#45;2784132837162893485</title>
<path fill="none" stroke="black" d="M557.38,-320.62C556.28,-328.93 555.18,-337.25 554.19,-344.74"/>
<polygon fill="black" stroke="black" points="550.73,-344.21 552.89,-354.58 557.67,-345.13 550.73,-344.21"/>
</g>
</g>
</svg>
