<?xml version="1.0" encoding="UTF-8" standalone="no"?>
<!DOCTYPE svg PUBLIC "-//W3C//DTD SVG 1.1//EN"
 "http://www.w3.org/Graphics/SVG/1.1/DTD/svg11.dtd">
<!-- Generated by graphviz version 2.50.0 (0)
 -->
<!-- Pages: 1 -->
<svg width="146pt" height="302pt"
 viewBox="0.00 0.00 145.66 301.96" xmlns="http://www.w3.org/2000/svg" xmlns:xlink="http://www.w3.org/1999/xlink">
<g id="graph0" class="graph" transform="scale(1 1) rotate(0) translate(4 297.96)">
<polygon fill="white" stroke="transparent" points="-4,4 -4,-297.96 141.66,-297.96 141.66,4 -4,4"/>
<!-- 1583747789779145105 -->
<g id="node1" class="node">
<title>1583747789779145105</title>
<ellipse fill="none" stroke="black" cx="68.83" cy="-194.81" rx="27.3" ry="27.3"/>
<text text-anchor="middle" x="68.83" y="-190.61" font-family="Helvetica,sans-Serif" font-size="14.00">add</text>
</g>
<!-- 6315058819617249697 -->
<g id="node2" class="node">
<title>6315058819617249697</title>
<polygon fill="none" stroke="black" points="95.83,-293.96 41.83,-293.96 41.83,-257.96 95.83,-257.96 95.83,-293.96"/>
</g>
<!-- 1583747789779145105&#45;&gt;6315058819617249697 -->
<g id="edge1" class="edge">
<title>1583747789779145105&#45;&gt;6315058819617249697</title>
<path fill="none" stroke="black" d="M68.83,-222.17C68.83,-230.3 68.83,-239.27 68.83,-247.47"/>
<polygon fill="black" stroke="black" points="65.33,-247.68 68.83,-257.68 72.33,-247.68 65.33,-247.68"/>
</g>
<!-- &#45;4587395489901094764 -->
<g id="node3" class="node">
<title>&#45;4587395489901094764</title>
<polygon fill="none" stroke="black" points="59.83,-131.66 5.83,-131.66 5.83,-95.66 59.83,-95.66 59.83,-131.66"/>
</g>
<!-- &#45;4587395489901094764&#45;&gt;1583747789779145105 -->
<g id="edge2" class="edge">
<title>&#45;4587395489901094764&#45;&gt;1583747789779145105</title>
<path fill="none" stroke="black" d="M40.64,-131.84C44.47,-140.24 49.21,-150.66 53.7,-160.54"/>
<polygon fill="black" stroke="black" points="50.57,-162.11 57.89,-169.77 56.94,-159.21 50.57,-162.11"/>
</g>
<!-- 1579926727027225718 -->
<g id="node4" class="node">
<title>1579926727027225718</title>
<polygon fill="none" stroke="black" points="132.83,-131.66 78.83,-131.66 78.83,-95.66 132.83,-95.66 132.83,-131.66"/>
</g>
<!-- 1579926727027225718&#45;&gt;1583747789779145105 -->
<g id="edge3" class="edge">
<title>1579926727027225718&#45;&gt;1583747789779145105</title>
<path fill="none" stroke="black" d="M97.8,-131.84C93.87,-140.24 89,-150.66 84.38,-160.54"/>
<polygon fill="black" stroke="black" points="81.14,-159.22 80.07,-169.77 87.48,-162.19 81.14,-159.22"/>
</g>
<!-- &#45;8708735979661776411 -->
<g id="node5" class="node">
<title>&#45;8708735979661776411</title>
<ellipse fill="none" stroke="black" cx="29.83" cy="-29.83" rx="29.66" ry="29.66"/>
<text text-anchor="middle" x="29.83" y="-25.63" font-family="Helvetica,sans-Serif" font-size="14.00">data</text>
</g>
<!-- &#45;8708735979661776411&#45;&gt;&#45;4587395489901094764 -->
<g id="edge4" class="edge">
<title>&#45;8708735979661776411&#45;&gt;&#45;4587395489901094764</title>
<path fill="none" stroke="black" d="M30.9,-59.91C31.2,-68.22 31.53,-77.23 31.83,-85.42"/>
<polygon fill="black" stroke="black" points="28.34,-85.72 32.21,-95.59 35.34,-85.47 28.34,-85.72"/>
</g>
<!-- 6889327799967056238 -->
<g id="node6" class="node">
<title>6889327799967056238</title>
<ellipse fill="none" stroke="black" cx="107.83" cy="-29.83" rx="29.66" ry="29.66"/>
<text text-anchor="middle" x="107.83" y="-25.63" font-family="Helvetica,sans-Serif" font-size="14.00">data</text>
</g>
<!-- 6889327799967056238&#45;&gt;1579926727027225718 -->
<g id="edge5" class="edge">
<title>6889327799967056238&#45;&gt;1579926727027225718</title>
<path fill="none" stroke="black" d="M107.12,-59.91C106.92,-68.22 106.7,-77.23 106.5,-85.42"/>
<polygon fill="black" stroke="black" points="102.99,-85.5 106.25,-95.59 109.99,-85.68 102.99,-85.5"/>
</g>
</g>
</svg>
