<?xml version="1.0" encoding="UTF-8" standalone="no"?>
<!DOCTYPE svg PUBLIC "-//W3C//DTD SVG 1.1//EN"
 "http://www.w3.org/Graphics/SVG/1.1/DTD/svg11.dtd">
<!-- Generated by graphviz version 2.50.0 (0)
 -->
<!-- Pages: 1 -->
<svg width="1026pt" height="2005pt"
 viewBox="0.00 0.00 1026.05 2004.61" xmlns="http://www.w3.org/2000/svg" xmlns:xlink="http://www.w3.org/1999/xlink">
<g id="graph0" class="graph" transform="scale(1 1) rotate(0) translate(4 2000.61)">
<polygon fill="white" stroke="transparent" points="-4,4 -4,-2000.61 1022.05,-2000.61 1022.05,4 -4,4"/>
<!-- 8872048593561538945 -->
<g id="node1" class="node">
<title>8872048593561538945</title>
<ellipse fill="none" stroke="black" cx="897.53" cy="-654.03" rx="42.91" ry="42.91"/>
<text text-anchor="middle" x="897.53" y="-649.83" font-family="Helvetica,sans-Serif" font-size="14.00">getitem</text>
</g>
<!-- 8709138181973721241 -->
<g id="node2" class="node">
<title>8709138181973721241</title>
<polygon fill="none" stroke="black" points="924.53,-768.74 870.53,-768.74 870.53,-732.74 924.53,-732.74 924.53,-768.74"/>
<text text-anchor="middle" x="897.53" y="-746.54" font-family="Helvetica,sans-Serif" font-size="14.00">0</text>
</g>
<!-- 8872048593561538945&#45;&gt;8709138181973721241 -->
<g id="edge1" class="edge">
<title>8872048593561538945&#45;&gt;8709138181973721241</title>
<path fill="none" stroke="black" d="M897.53,-696.85C897.53,-705.43 897.53,-714.26 897.53,-722.19"/>
<polygon fill="black" stroke="black" points="894.03,-722.33 897.53,-732.33 901.03,-722.33 894.03,-722.33"/>
</g>
<!-- &#45;8944086185451685873 -->
<g id="node33" class="node">
<title>&#45;8944086185451685873</title>
<ellipse fill="none" stroke="black" cx="897.53" cy="-847.44" rx="42.91" ry="42.91"/>
<text text-anchor="middle" x="897.53" y="-843.24" font-family="Helvetica,sans-Serif" font-size="14.00">getitem</text>
</g>
<!-- 8709138181973721241&#45;&gt;&#45;8944086185451685873 -->
<g id="edge34" class="edge">
<title>8709138181973721241&#45;&gt;&#45;8944086185451685873</title>
<path fill="none" stroke="black" d="M897.53,-769.11C897.53,-776.32 897.53,-785.12 897.53,-794.16"/>
<polygon fill="black" stroke="black" points="894.03,-794.39 897.53,-804.39 901.03,-794.39 894.03,-794.39"/>
</g>
<!-- &#45;5822874994030238693 -->
<g id="node3" class="node">
<title>&#45;5822874994030238693</title>
<polygon fill="none" stroke="black" points="896.53,-235.74 842.53,-235.74 842.53,-199.74 896.53,-199.74 896.53,-235.74"/>
<text text-anchor="middle" x="869.53" y="-213.54" font-family="Helvetica,sans-Serif" font-size="14.00">0</text>
</g>
<!-- &#45;5822874994030238693&#45;&gt;8872048593561538945 -->
<g id="edge2" class="edge">
<title>&#45;5822874994030238693&#45;&gt;8872048593561538945</title>
<path fill="none" stroke="black" d="M866.68,-235.84C861.38,-269.24 850.53,-345.53 850.53,-410.15 850.53,-410.15 850.53,-410.15 850.53,-485.24 850.53,-526.95 864.16,-572.41 876.74,-605.48"/>
<polygon fill="black" stroke="black" points="873.52,-606.85 880.42,-614.89 880.04,-604.3 873.52,-606.85"/>
</g>
<!-- &#45;4017845118532031373 -->
<g id="node21" class="node">
<title>&#45;4017845118532031373</title>
<ellipse fill="none" stroke="black" cx="921.53" cy="-314.44" rx="42.91" ry="42.91"/>
<text text-anchor="middle" x="921.53" y="-310.24" font-family="Helvetica,sans-Serif" font-size="14.00">getitem</text>
</g>
<!-- &#45;5822874994030238693&#45;&gt;&#45;4017845118532031373 -->
<g id="edge18" class="edge">
<title>&#45;5822874994030238693&#45;&gt;&#45;4017845118532031373</title>
<path fill="none" stroke="black" d="M879.06,-236.11C883.97,-245.04 890.2,-256.39 896.37,-267.63"/>
<polygon fill="black" stroke="black" points="893.4,-269.49 901.28,-276.57 899.53,-266.12 893.4,-269.49"/>
</g>
<!-- 550739200323130355 -->
<g id="node4" class="node">
<title>550739200323130355</title>
<polygon fill="none" stroke="black" points="934.53,-575.33 880.53,-575.33 880.53,-539.33 934.53,-539.33 934.53,-575.33"/>
<text text-anchor="middle" x="907.53" y="-553.13" font-family="Helvetica,sans-Serif" font-size="14.00">0</text>
</g>
<!-- 550739200323130355&#45;&gt;8872048593561538945 -->
<g id="edge3" class="edge">
<title>550739200323130355&#45;&gt;8872048593561538945</title>
<path fill="none" stroke="black" d="M905.69,-575.7C904.91,-583.07 903.96,-592.09 902.98,-601.33"/>
<polygon fill="black" stroke="black" points="899.49,-601.07 901.92,-611.38 906.45,-601.81 899.49,-601.07"/>
</g>
<!-- 3669564305428597775 -->
<g id="node5" class="node">
<title>3669564305428597775</title>
<ellipse fill="none" stroke="black" cx="120.53" cy="-654.03" rx="42.91" ry="42.91"/>
<text text-anchor="middle" x="120.53" y="-649.83" font-family="Helvetica,sans-Serif" font-size="14.00">getitem</text>
</g>
<!-- &#45;3229965135633831950 -->
<g id="node6" class="node">
<title>&#45;3229965135633831950</title>
<polygon fill="none" stroke="black" points="147.53,-768.74 93.53,-768.74 93.53,-732.74 147.53,-732.74 147.53,-768.74"/>
<text text-anchor="middle" x="120.53" y="-746.54" font-family="Helvetica,sans-Serif" font-size="14.00">1</text>
</g>
<!-- 3669564305428597775&#45;&gt;&#45;3229965135633831950 -->
<g id="edge4" class="edge">
<title>3669564305428597775&#45;&gt;&#45;3229965135633831950</title>
<path fill="none" stroke="black" d="M120.53,-696.85C120.53,-705.43 120.53,-714.26 120.53,-722.19"/>
<polygon fill="black" stroke="black" points="117.03,-722.33 120.53,-732.33 124.03,-722.33 117.03,-722.33"/>
</g>
<!-- 8698530983109292701 -->
<g id="node35" class="node">
<title>8698530983109292701</title>
<ellipse fill="none" stroke="black" cx="120.53" cy="-847.44" rx="42.91" ry="42.91"/>
<text text-anchor="middle" x="120.53" y="-843.24" font-family="Helvetica,sans-Serif" font-size="14.00">getitem</text>
</g>
<!-- &#45;3229965135633831950&#45;&gt;8698530983109292701 -->
<g id="edge36" class="edge">
<title>&#45;3229965135633831950&#45;&gt;8698530983109292701</title>
<path fill="none" stroke="black" d="M120.53,-769.11C120.53,-776.32 120.53,-785.12 120.53,-794.16"/>
<polygon fill="black" stroke="black" points="117.03,-794.39 120.53,-804.39 124.03,-794.39 117.03,-794.39"/>
</g>
<!-- 2660022573440760652 -->
<g id="node7" class="node">
<title>2660022573440760652</title>
<polygon fill="none" stroke="black" points="194.53,-575.33 140.53,-575.33 140.53,-539.33 194.53,-539.33 194.53,-575.33"/>
<text text-anchor="middle" x="167.53" y="-553.13" font-family="Helvetica,sans-Serif" font-size="14.00">1</text>
</g>
<!-- 2660022573440760652&#45;&gt;3669564305428597775 -->
<g id="edge5" class="edge">
<title>2660022573440760652&#45;&gt;3669564305428597775</title>
<path fill="none" stroke="black" d="M158.91,-575.7C154.6,-584.38 149.16,-595.34 143.74,-606.25"/>
<polygon fill="black" stroke="black" points="140.53,-604.85 139.22,-615.37 146.8,-607.96 140.53,-604.85"/>
</g>
<!-- 7730795050706616557 -->
<g id="node8" class="node">
<title>7730795050706616557</title>
<polygon fill="none" stroke="black" points="174.53,-235.74 120.53,-235.74 120.53,-199.74 174.53,-199.74 174.53,-235.74"/>
<text text-anchor="middle" x="147.53" y="-213.54" font-family="Helvetica,sans-Serif" font-size="14.00">1</text>
</g>
<!-- 7730795050706616557&#45;&gt;3669564305428597775 -->
<g id="edge6" class="edge">
<title>7730795050706616557&#45;&gt;3669564305428597775</title>
<path fill="none" stroke="black" d="M140.67,-236.16C136.88,-246.38 132.38,-259.63 129.53,-271.74 115.25,-332.17 110.53,-348.06 110.53,-410.15 110.53,-410.15 110.53,-410.15 110.53,-485.24 110.53,-524.08 113.23,-567.89 115.82,-601"/>
<polygon fill="black" stroke="black" points="112.37,-601.67 116.66,-611.36 119.34,-601.11 112.37,-601.67"/>
</g>
<!-- &#45;4176883329077506893 -->
<g id="node23" class="node">
<title>&#45;4176883329077506893</title>
<ellipse fill="none" stroke="black" cx="181.53" cy="-314.44" rx="42.91" ry="42.91"/>
<text text-anchor="middle" x="181.53" y="-310.24" font-family="Helvetica,sans-Serif" font-size="14.00">getitem</text>
</g>
<!-- 7730795050706616557&#45;&gt;&#45;4176883329077506893 -->
<g id="edge20" class="edge">
<title>7730795050706616557&#45;&gt;&#45;4176883329077506893</title>
<path fill="none" stroke="black" d="M153.76,-236.11C156.64,-244.12 160.21,-254.08 163.83,-264.16"/>
<polygon fill="black" stroke="black" points="160.62,-265.56 167.29,-273.79 167.21,-263.2 160.62,-265.56"/>
</g>
<!-- &#45;3294100174724893138 -->
<g id="node9" class="node">
<title>&#45;3294100174724893138</title>
<ellipse fill="none" stroke="black" cx="379.53" cy="-654.03" rx="42.91" ry="42.91"/>
<text text-anchor="middle" x="379.53" y="-649.83" font-family="Helvetica,sans-Serif" font-size="14.00">getitem</text>
</g>
<!-- 3277675620468166475 -->
<g id="node10" class="node">
<title>3277675620468166475</title>
<polygon fill="none" stroke="black" points="406.53,-768.74 352.53,-768.74 352.53,-732.74 406.53,-732.74 406.53,-768.74"/>
<text text-anchor="middle" x="379.53" y="-746.54" font-family="Helvetica,sans-Serif" font-size="14.00">2</text>
</g>
<!-- &#45;3294100174724893138&#45;&gt;3277675620468166475 -->
<g id="edge7" class="edge">
<title>&#45;3294100174724893138&#45;&gt;3277675620468166475</title>
<path fill="none" stroke="black" d="M379.53,-696.85C379.53,-705.43 379.53,-714.26 379.53,-722.19"/>
<polygon fill="black" stroke="black" points="376.03,-722.33 379.53,-732.33 383.03,-722.33 376.03,-722.33"/>
</g>
<!-- 2379955197558899310 -->
<g id="node37" class="node">
<title>2379955197558899310</title>
<ellipse fill="none" stroke="black" cx="379.53" cy="-847.44" rx="42.91" ry="42.91"/>
<text text-anchor="middle" x="379.53" y="-843.24" font-family="Helvetica,sans-Serif" font-size="14.00">getitem</text>
</g>
<!-- 3277675620468166475&#45;&gt;2379955197558899310 -->
<g id="edge38" class="edge">
<title>3277675620468166475&#45;&gt;2379955197558899310</title>
<path fill="none" stroke="black" d="M379.53,-769.11C379.53,-776.32 379.53,-785.12 379.53,-794.16"/>
<polygon fill="black" stroke="black" points="376.03,-794.39 379.53,-804.39 383.03,-794.39 376.03,-794.39"/>
</g>
<!-- 9167663329542759077 -->
<g id="node11" class="node">
<title>9167663329542759077</title>
<polygon fill="none" stroke="black" points="411.53,-575.33 357.53,-575.33 357.53,-539.33 411.53,-539.33 411.53,-575.33"/>
<text text-anchor="middle" x="384.53" y="-553.13" font-family="Helvetica,sans-Serif" font-size="14.00">2</text>
</g>
<!-- 9167663329542759077&#45;&gt;&#45;3294100174724893138 -->
<g id="edge8" class="edge">
<title>9167663329542759077&#45;&gt;&#45;3294100174724893138</title>
<path fill="none" stroke="black" d="M383.61,-575.7C383.22,-583.07 382.74,-592.09 382.26,-601.33"/>
<polygon fill="black" stroke="black" points="378.76,-601.21 381.72,-611.38 385.75,-601.58 378.76,-601.21"/>
</g>
<!-- &#45;4208308266900936634 -->
<g id="node12" class="node">
<title>&#45;4208308266900936634</title>
<polygon fill="none" stroke="black" points="359.53,-235.74 305.53,-235.74 305.53,-199.74 359.53,-199.74 359.53,-235.74"/>
<text text-anchor="middle" x="332.53" y="-213.54" font-family="Helvetica,sans-Serif" font-size="14.00">2</text>
</g>
<!-- &#45;4208308266900936634&#45;&gt;&#45;3294100174724893138 -->
<g id="edge9" class="edge">
<title>&#45;4208308266900936634&#45;&gt;&#45;3294100174724893138</title>
<path fill="none" stroke="black" d="M331.78,-235.89C330.38,-269.38 327.53,-345.83 327.53,-410.15 327.53,-410.15 327.53,-410.15 327.53,-485.24 327.53,-527.43 342.71,-573.02 356.67,-606.02"/>
<polygon fill="black" stroke="black" points="353.56,-607.63 360.75,-615.41 359.97,-604.84 353.56,-607.63"/>
</g>
<!-- 2030037679767340559 -->
<g id="node25" class="node">
<title>2030037679767340559</title>
<ellipse fill="none" stroke="black" cx="398.53" cy="-314.44" rx="42.91" ry="42.91"/>
<text text-anchor="middle" x="398.53" y="-310.24" font-family="Helvetica,sans-Serif" font-size="14.00">getitem</text>
</g>
<!-- &#45;4208308266900936634&#45;&gt;2030037679767340559 -->
<g id="edge22" class="edge">
<title>&#45;4208308266900936634&#45;&gt;2030037679767340559</title>
<path fill="none" stroke="black" d="M344.63,-236.11C351.4,-245.83 360.17,-258.41 368.66,-270.59"/>
<polygon fill="black" stroke="black" points="365.88,-272.72 374.46,-278.92 371.62,-268.71 365.88,-272.72"/>
</g>
<!-- &#45;3453138385270368658 -->
<g id="node13" class="node">
<title>&#45;3453138385270368658</title>
<ellipse fill="none" stroke="black" cx="638.53" cy="-654.03" rx="42.91" ry="42.91"/>
<text text-anchor="middle" x="638.53" y="-649.83" font-family="Helvetica,sans-Serif" font-size="14.00">getitem</text>
</g>
<!-- &#45;1615398408504529891 -->
<g id="node14" class="node">
<title>&#45;1615398408504529891</title>
<polygon fill="none" stroke="black" points="665.53,-768.74 611.53,-768.74 611.53,-732.74 665.53,-732.74 665.53,-768.74"/>
<text text-anchor="middle" x="638.53" y="-746.54" font-family="Helvetica,sans-Serif" font-size="14.00">3</text>
</g>
<!-- &#45;3453138385270368658&#45;&gt;&#45;1615398408504529891 -->
<g id="edge10" class="edge">
<title>&#45;3453138385270368658&#45;&gt;&#45;1615398408504529891</title>
<path fill="none" stroke="black" d="M638.53,-696.85C638.53,-705.43 638.53,-714.26 638.53,-722.19"/>
<polygon fill="black" stroke="black" points="635.03,-722.33 638.53,-732.33 642.03,-722.33 635.03,-722.33"/>
</g>
<!-- &#45;3700330292300886983 -->
<g id="node39" class="node">
<title>&#45;3700330292300886983</title>
<ellipse fill="none" stroke="black" cx="638.53" cy="-847.44" rx="42.91" ry="42.91"/>
<text text-anchor="middle" x="638.53" y="-843.24" font-family="Helvetica,sans-Serif" font-size="14.00">getitem</text>
</g>
<!-- &#45;1615398408504529891&#45;&gt;&#45;3700330292300886983 -->
<g id="edge40" class="edge">
<title>&#45;1615398408504529891&#45;&gt;&#45;3700330292300886983</title>
<path fill="none" stroke="black" d="M638.53,-769.11C638.53,-776.32 638.53,-785.12 638.53,-794.16"/>
<polygon fill="black" stroke="black" points="635.03,-794.39 638.53,-804.39 642.03,-794.39 635.03,-794.39"/>
</g>
<!-- &#45;9101382295873633000 -->
<g id="node15" class="node">
<title>&#45;9101382295873633000</title>
<polygon fill="none" stroke="black" points="684.53,-235.74 630.53,-235.74 630.53,-199.74 684.53,-199.74 684.53,-235.74"/>
<text text-anchor="middle" x="657.53" y="-213.54" font-family="Helvetica,sans-Serif" font-size="14.00">3</text>
</g>
<!-- &#45;9101382295873633000&#45;&gt;&#45;3453138385270368658 -->
<g id="edge11" class="edge">
<title>&#45;9101382295873633000&#45;&gt;&#45;3453138385270368658</title>
<path fill="none" stroke="black" d="M638.81,-236.13C629.67,-245.72 619.4,-258.39 613.53,-271.74 588.51,-328.57 594.53,-348.06 594.53,-410.15 594.53,-410.15 594.53,-410.15 594.53,-485.24 594.53,-526.63 607.21,-571.94 618.95,-605.03"/>
<polygon fill="black" stroke="black" points="615.68,-606.26 622.39,-614.46 622.25,-603.86 615.68,-606.26"/>
</g>
<!-- 6269356852206233167 -->
<g id="node27" class="node">
<title>6269356852206233167</title>
<ellipse fill="none" stroke="black" cx="665.53" cy="-314.44" rx="42.91" ry="42.91"/>
<text text-anchor="middle" x="665.53" y="-310.24" font-family="Helvetica,sans-Serif" font-size="14.00">getitem</text>
</g>
<!-- &#45;9101382295873633000&#45;&gt;6269356852206233167 -->
<g id="edge24" class="edge">
<title>&#45;9101382295873633000&#45;&gt;6269356852206233167</title>
<path fill="none" stroke="black" d="M658.99,-236.11C659.62,-243.48 660.38,-252.5 661.16,-261.74"/>
<polygon fill="black" stroke="black" points="657.68,-262.12 662.01,-271.79 664.65,-261.53 657.68,-262.12"/>
</g>
<!-- 4274589300570062711 -->
<g id="node16" class="node">
<title>4274589300570062711</title>
<polygon fill="none" stroke="black" points="680.53,-575.33 626.53,-575.33 626.53,-539.33 680.53,-539.33 680.53,-575.33"/>
<text text-anchor="middle" x="653.53" y="-553.13" font-family="Helvetica,sans-Serif" font-size="14.00">3</text>
</g>
<!-- 4274589300570062711&#45;&gt;&#45;3453138385270368658 -->
<g id="edge12" class="edge">
<title>4274589300570062711&#45;&gt;&#45;3453138385270368658</title>
<path fill="none" stroke="black" d="M650.77,-575.7C649.59,-583.15 648.15,-592.28 646.67,-601.63"/>
<polygon fill="black" stroke="black" points="643.17,-601.36 645.06,-611.78 650.08,-602.45 643.17,-601.36"/>
</g>
<!-- 8164725678597744807 -->
<g id="node17" class="node">
<title>8164725678597744807</title>
<ellipse fill="none" stroke="black" cx="869.53" cy="-81.87" rx="81.74" ry="81.74"/>
<text text-anchor="middle" x="869.53" y="-77.67" font-family="Helvetica,sans-Serif" font-size="14.00">make&#45;timeseries</text>
</g>
<!-- 8164725678597744807&#45;&gt;&#45;5822874994030238693 -->
<g id="edge13" class="edge">
<title>8164725678597744807&#45;&gt;&#45;5822874994030238693</title>
<path fill="none" stroke="black" d="M869.53,-163.83C869.53,-172.96 869.53,-181.73 869.53,-189.41"/>
<polygon fill="black" stroke="black" points="866.03,-189.47 869.53,-199.47 873.03,-189.47 866.03,-189.47"/>
</g>
<!-- &#45;6042699222672914201 -->
<g id="node18" class="node">
<title>&#45;6042699222672914201</title>
<ellipse fill="none" stroke="black" cx="147.53" cy="-81.87" rx="81.74" ry="81.74"/>
<text text-anchor="middle" x="147.53" y="-77.67" font-family="Helvetica,sans-Serif" font-size="14.00">make&#45;timeseries</text>
</g>
<!-- &#45;6042699222672914201&#45;&gt;7730795050706616557 -->
<g id="edge14" class="edge">
<title>&#45;6042699222672914201&#45;&gt;7730795050706616557</title>
<path fill="none" stroke="black" d="M147.53,-163.83C147.53,-172.96 147.53,-181.73 147.53,-189.41"/>
<polygon fill="black" stroke="black" points="144.03,-189.47 147.53,-199.47 151.03,-189.47 144.03,-189.47"/>
</g>
<!-- 4553888657253207548 -->
<g id="node19" class="node">
<title>4553888657253207548</title>
<ellipse fill="none" stroke="black" cx="332.53" cy="-81.87" rx="81.74" ry="81.74"/>
<text text-anchor="middle" x="332.53" y="-77.67" font-family="Helvetica,sans-Serif" font-size="14.00">make&#45;timeseries</text>
</g>
<!-- 4553888657253207548&#45;&gt;&#45;4208308266900936634 -->
<g id="edge15" class="edge">
<title>4553888657253207548&#45;&gt;&#45;4208308266900936634</title>
<path fill="none" stroke="black" d="M332.53,-163.83C332.53,-172.96 332.53,-181.73 332.53,-189.41"/>
<polygon fill="black" stroke="black" points="329.03,-189.47 332.53,-199.47 336.03,-189.47 329.03,-189.47"/>
</g>
<!-- 4394850446707732028 -->
<g id="node20" class="node">
<title>4394850446707732028</title>
<ellipse fill="none" stroke="black" cx="657.53" cy="-81.87" rx="81.74" ry="81.74"/>
<text text-anchor="middle" x="657.53" y="-77.67" font-family="Helvetica,sans-Serif" font-size="14.00">make&#45;timeseries</text>
</g>
<!-- 4394850446707732028&#45;&gt;&#45;9101382295873633000 -->
<g id="edge16" class="edge">
<title>4394850446707732028&#45;&gt;&#45;9101382295873633000</title>
<path fill="none" stroke="black" d="M657.53,-163.83C657.53,-172.96 657.53,-181.73 657.53,-189.41"/>
<polygon fill="black" stroke="black" points="654.03,-189.47 657.53,-199.47 661.03,-189.47 654.03,-189.47"/>
</g>
<!-- 9131622122717559987 -->
<g id="node22" class="node">
<title>9131622122717559987</title>
<polygon fill="none" stroke="black" points="944.53,-429.15 890.53,-429.15 890.53,-393.15 944.53,-393.15 944.53,-429.15"/>
<text text-anchor="middle" x="917.53" y="-406.95" font-family="Helvetica,sans-Serif" font-size="14.00">0</text>
</g>
<!-- &#45;4017845118532031373&#45;&gt;9131622122717559987 -->
<g id="edge17" class="edge">
<title>&#45;4017845118532031373&#45;&gt;9131622122717559987</title>
<path fill="none" stroke="black" d="M919.76,-357.26C919.4,-365.84 919.02,-374.67 918.69,-382.6"/>
<polygon fill="black" stroke="black" points="915.19,-382.61 918.26,-392.74 922.18,-382.9 915.19,-382.61"/>
</g>
<!-- 6475816960322151077 -->
<g id="node29" class="node">
<title>6475816960322151077</title>
<ellipse fill="none" stroke="black" cx="909.53" cy="-484.24" rx="19.18" ry="19.18"/>
<text text-anchor="middle" x="909.53" y="-480.04" font-family="Helvetica,sans-Serif" font-size="14.00">gt</text>
</g>
<!-- 9131622122717559987&#45;&gt;6475816960322151077 -->
<g id="edge26" class="edge">
<title>9131622122717559987&#45;&gt;6475816960322151077</title>
<path fill="none" stroke="black" d="M915.59,-429.36C914.72,-437.07 913.68,-446.37 912.7,-455.05"/>
<polygon fill="black" stroke="black" points="909.2,-454.87 911.56,-465.2 916.15,-455.65 909.2,-454.87"/>
</g>
<!-- 4238548093744863621 -->
<g id="node24" class="node">
<title>4238548093744863621</title>
<polygon fill="none" stroke="black" points="206.53,-429.15 152.53,-429.15 152.53,-393.15 206.53,-393.15 206.53,-429.15"/>
<text text-anchor="middle" x="179.53" y="-406.95" font-family="Helvetica,sans-Serif" font-size="14.00">1</text>
</g>
<!-- &#45;4176883329077506893&#45;&gt;4238548093744863621 -->
<g id="edge19" class="edge">
<title>&#45;4176883329077506893&#45;&gt;4238548093744863621</title>
<path fill="none" stroke="black" d="M180.64,-357.26C180.46,-365.84 180.28,-374.67 180.11,-382.6"/>
<polygon fill="black" stroke="black" points="176.61,-382.67 179.89,-392.74 183.6,-382.82 176.61,-382.67"/>
</g>
<!-- 6952162771359175827 -->
<g id="node30" class="node">
<title>6952162771359175827</title>
<ellipse fill="none" stroke="black" cx="175.53" cy="-484.24" rx="19.18" ry="19.18"/>
<text text-anchor="middle" x="175.53" y="-480.04" font-family="Helvetica,sans-Serif" font-size="14.00">gt</text>
</g>
<!-- 4238548093744863621&#45;&gt;6952162771359175827 -->
<g id="edge28" class="edge">
<title>4238548093744863621&#45;&gt;6952162771359175827</title>
<path fill="none" stroke="black" d="M178.56,-429.36C178.13,-437.01 177.61,-446.23 177.12,-454.86"/>
<polygon fill="black" stroke="black" points="173.62,-454.76 176.56,-464.95 180.61,-455.16 173.62,-454.76"/>
</g>
<!-- 6347831466862493918 -->
<g id="node26" class="node">
<title>6347831466862493918</title>
<polygon fill="none" stroke="black" points="423.53,-429.15 369.53,-429.15 369.53,-393.15 423.53,-393.15 423.53,-429.15"/>
<text text-anchor="middle" x="396.53" y="-406.95" font-family="Helvetica,sans-Serif" font-size="14.00">2</text>
</g>
<!-- 2030037679767340559&#45;&gt;6347831466862493918 -->
<g id="edge21" class="edge">
<title>2030037679767340559&#45;&gt;6347831466862493918</title>
<path fill="none" stroke="black" d="M397.64,-357.26C397.46,-365.84 397.28,-374.67 397.11,-382.6"/>
<polygon fill="black" stroke="black" points="393.61,-382.67 396.89,-392.74 400.6,-382.82 393.61,-382.67"/>
</g>
<!-- &#45;6568133009691126129 -->
<g id="node31" class="node">
<title>&#45;6568133009691126129</title>
<ellipse fill="none" stroke="black" cx="392.53" cy="-484.24" rx="19.18" ry="19.18"/>
<text text-anchor="middle" x="392.53" y="-480.04" font-family="Helvetica,sans-Serif" font-size="14.00">gt</text>
</g>
<!-- 6347831466862493918&#45;&gt;&#45;6568133009691126129 -->
<g id="edge30" class="edge">
<title>6347831466862493918&#45;&gt;&#45;6568133009691126129</title>
<path fill="none" stroke="black" d="M395.56,-429.36C395.13,-437.01 394.61,-446.23 394.12,-454.86"/>
<polygon fill="black" stroke="black" points="390.62,-454.76 393.56,-464.95 397.61,-455.16 390.62,-454.76"/>
</g>
<!-- 1454757437889797552 -->
<g id="node28" class="node">
<title>1454757437889797552</title>
<polygon fill="none" stroke="black" points="684.53,-429.15 630.53,-429.15 630.53,-393.15 684.53,-393.15 684.53,-429.15"/>
<text text-anchor="middle" x="657.53" y="-406.95" font-family="Helvetica,sans-Serif" font-size="14.00">3</text>
</g>
<!-- 6269356852206233167&#45;&gt;1454757437889797552 -->
<g id="edge23" class="edge">
<title>6269356852206233167&#45;&gt;1454757437889797552</title>
<path fill="none" stroke="black" d="M661.99,-357.26C661.27,-365.84 660.52,-374.67 659.85,-382.6"/>
<polygon fill="black" stroke="black" points="656.35,-382.48 659,-392.74 663.33,-383.07 656.35,-382.48"/>
</g>
<!-- &#45;6727171220236601649 -->
<g id="node32" class="node">
<title>&#45;6727171220236601649</title>
<ellipse fill="none" stroke="black" cx="657.53" cy="-484.24" rx="19.18" ry="19.18"/>
<text text-anchor="middle" x="657.53" y="-480.04" font-family="Helvetica,sans-Serif" font-size="14.00">gt</text>
</g>
<!-- 1454757437889797552&#45;&gt;&#45;6727171220236601649 -->
<g id="edge32" class="edge">
<title>1454757437889797552&#45;&gt;&#45;6727171220236601649</title>
<path fill="none" stroke="black" d="M657.53,-429.36C657.53,-437.01 657.53,-446.23 657.53,-454.86"/>
<polygon fill="black" stroke="black" points="654.03,-454.95 657.53,-464.95 661.03,-454.95 654.03,-454.95"/>
</g>
<!-- 6475816960322151077&#45;&gt;550739200323130355 -->
<g id="edge25" class="edge">
<title>6475816960322151077&#45;&gt;550739200323130355</title>
<path fill="none" stroke="black" d="M909.01,-503.55C908.79,-511.38 908.53,-520.7 908.29,-529.3"/>
<polygon fill="black" stroke="black" points="904.79,-529.21 908,-539.3 911.78,-529.41 904.79,-529.21"/>
</g>
<!-- 6952162771359175827&#45;&gt;2660022573440760652 -->
<g id="edge27" class="edge">
<title>6952162771359175827&#45;&gt;2660022573440760652</title>
<path fill="none" stroke="black" d="M173.47,-503.55C172.58,-511.38 171.54,-520.7 170.57,-529.3"/>
<polygon fill="black" stroke="black" points="167.08,-528.98 169.44,-539.3 174.04,-529.76 167.08,-528.98"/>
</g>
<!-- &#45;6568133009691126129&#45;&gt;9167663329542759077 -->
<g id="edge29" class="edge">
<title>&#45;6568133009691126129&#45;&gt;9167663329542759077</title>
<path fill="none" stroke="black" d="M390.47,-503.55C389.58,-511.38 388.54,-520.7 387.57,-529.3"/>
<polygon fill="black" stroke="black" points="384.08,-528.98 386.44,-539.3 391.04,-529.76 384.08,-528.98"/>
</g>
<!-- &#45;6727171220236601649&#45;&gt;4274589300570062711 -->
<g id="edge31" class="edge">
<title>&#45;6727171220236601649&#45;&gt;4274589300570062711</title>
<path fill="none" stroke="black" d="M656.5,-503.55C656.05,-511.38 655.53,-520.7 655.05,-529.3"/>
<polygon fill="black" stroke="black" points="651.55,-529.12 654.48,-539.3 658.54,-529.52 651.55,-529.12"/>
</g>
<!-- &#45;8919202766357025456 -->
<g id="node34" class="node">
<title>&#45;8919202766357025456</title>
<polygon fill="none" stroke="black" points="924.53,-962.15 870.53,-962.15 870.53,-926.15 924.53,-926.15 924.53,-962.15"/>
<text text-anchor="middle" x="897.53" y="-939.95" font-family="Helvetica,sans-Serif" font-size="14.00">0</text>
</g>
<!-- &#45;8944086185451685873&#45;&gt;&#45;8919202766357025456 -->
<g id="edge33" class="edge">
<title>&#45;8944086185451685873&#45;&gt;&#45;8919202766357025456</title>
<path fill="none" stroke="black" d="M897.53,-890.26C897.53,-898.84 897.53,-907.67 897.53,-915.6"/>
<polygon fill="black" stroke="black" points="894.03,-915.74 897.53,-925.74 901.03,-915.74 894.03,-915.74"/>
</g>
<!-- &#45;5971584819185794861 -->
<g id="node41" class="node">
<title>&#45;5971584819185794861</title>
<ellipse fill="none" stroke="black" cx="897.53" cy="-1118.67" rx="120.55" ry="120.55"/>
<text text-anchor="middle" x="897.53" y="-1114.47" font-family="Helvetica,sans-Serif" font-size="14.00">series&#45;groupby&#45;var&#45;chunk</text>
</g>
<!-- &#45;8919202766357025456&#45;&gt;&#45;5971584819185794861 -->
<g id="edge42" class="edge">
<title>&#45;8919202766357025456&#45;&gt;&#45;5971584819185794861</title>
<path fill="none" stroke="black" d="M897.53,-962.32C897.53,-969.35 897.53,-978.15 897.53,-987.97"/>
<polygon fill="black" stroke="black" points="894.03,-988.09 897.53,-998.09 901.03,-988.09 894.03,-988.09"/>
</g>
<!-- &#45;2411562010255027031 -->
<g id="node36" class="node">
<title>&#45;2411562010255027031</title>
<polygon fill="none" stroke="black" points="147.53,-962.15 93.53,-962.15 93.53,-926.15 147.53,-926.15 147.53,-962.15"/>
<text text-anchor="middle" x="120.53" y="-939.95" font-family="Helvetica,sans-Serif" font-size="14.00">1</text>
</g>
<!-- 8698530983109292701&#45;&gt;&#45;2411562010255027031 -->
<g id="edge35" class="edge">
<title>8698530983109292701&#45;&gt;&#45;2411562010255027031</title>
<path fill="none" stroke="black" d="M120.53,-890.26C120.53,-898.84 120.53,-907.67 120.53,-915.6"/>
<polygon fill="black" stroke="black" points="117.03,-915.74 120.53,-925.74 124.03,-915.74 117.03,-915.74"/>
</g>
<!-- &#45;1732265646746902253 -->
<g id="node43" class="node">
<title>&#45;1732265646746902253</title>
<ellipse fill="none" stroke="black" cx="120.53" cy="-1118.67" rx="120.55" ry="120.55"/>
<text text-anchor="middle" x="120.53" y="-1114.47" font-family="Helvetica,sans-Serif" font-size="14.00">series&#45;groupby&#45;var&#45;chunk</text>
</g>
<!-- &#45;2411562010255027031&#45;&gt;&#45;1732265646746902253 -->
<g id="edge44" class="edge">
<title>&#45;2411562010255027031&#45;&gt;&#45;1732265646746902253</title>
<path fill="none" stroke="black" d="M120.53,-962.32C120.53,-969.35 120.53,-978.15 120.53,-987.97"/>
<polygon fill="black" stroke="black" points="117.03,-988.09 120.53,-998.09 124.03,-988.09 117.03,-988.09"/>
</g>
<!-- &#45;7304636039227723397 -->
<g id="node38" class="node">
<title>&#45;7304636039227723397</title>
<polygon fill="none" stroke="black" points="406.53,-962.15 352.53,-962.15 352.53,-926.15 406.53,-926.15 406.53,-962.15"/>
<text text-anchor="middle" x="379.53" y="-939.95" font-family="Helvetica,sans-Serif" font-size="14.00">2</text>
</g>
<!-- 2379955197558899310&#45;&gt;&#45;7304636039227723397 -->
<g id="edge37" class="edge">
<title>2379955197558899310&#45;&gt;&#45;7304636039227723397</title>
<path fill="none" stroke="black" d="M379.53,-890.26C379.53,-898.84 379.53,-907.67 379.53,-915.6"/>
<polygon fill="black" stroke="black" points="376.03,-915.74 379.53,-925.74 383.03,-915.74 376.03,-915.74"/>
</g>
<!-- 5352456563824790322 -->
<g id="node45" class="node">
<title>5352456563824790322</title>
<ellipse fill="none" stroke="black" cx="379.53" cy="-1118.67" rx="120.55" ry="120.55"/>
<text text-anchor="middle" x="379.53" y="-1114.47" font-family="Helvetica,sans-Serif" font-size="14.00">series&#45;groupby&#45;var&#45;chunk</text>
</g>
<!-- &#45;7304636039227723397&#45;&gt;5352456563824790322 -->
<g id="edge46" class="edge">
<title>&#45;7304636039227723397&#45;&gt;5352456563824790322</title>
<path fill="none" stroke="black" d="M379.53,-962.32C379.53,-969.35 379.53,-978.15 379.53,-987.97"/>
<polygon fill="black" stroke="black" points="376.03,-988.09 379.53,-998.09 383.03,-988.09 376.03,-988.09"/>
</g>
<!-- &#45;5195352666110093100 -->
<g id="node40" class="node">
<title>&#45;5195352666110093100</title>
<polygon fill="none" stroke="black" points="665.53,-962.15 611.53,-962.15 611.53,-926.15 665.53,-926.15 665.53,-962.15"/>
<text text-anchor="middle" x="638.53" y="-939.95" font-family="Helvetica,sans-Serif" font-size="14.00">3</text>
</g>
<!-- &#45;3700330292300886983&#45;&gt;&#45;5195352666110093100 -->
<g id="edge39" class="edge">
<title>&#45;3700330292300886983&#45;&gt;&#45;5195352666110093100</title>
<path fill="none" stroke="black" d="M638.53,-890.26C638.53,-898.84 638.53,-907.67 638.53,-915.6"/>
<polygon fill="black" stroke="black" points="635.03,-915.74 638.53,-925.74 642.03,-915.74 635.03,-915.74"/>
</g>
<!-- &#45;7522750522622414112 -->
<g id="node47" class="node">
<title>&#45;7522750522622414112</title>
<ellipse fill="none" stroke="black" cx="638.53" cy="-1118.67" rx="120.55" ry="120.55"/>
<text text-anchor="middle" x="638.53" y="-1114.47" font-family="Helvetica,sans-Serif" font-size="14.00">series&#45;groupby&#45;var&#45;chunk</text>
</g>
<!-- &#45;5195352666110093100&#45;&gt;&#45;7522750522622414112 -->
<g id="edge48" class="edge">
<title>&#45;5195352666110093100&#45;&gt;&#45;7522750522622414112</title>
<path fill="none" stroke="black" d="M638.53,-962.32C638.53,-969.35 638.53,-978.15 638.53,-987.97"/>
<polygon fill="black" stroke="black" points="635.03,-988.09 638.53,-998.09 642.03,-988.09 635.03,-988.09"/>
</g>
<!-- &#45;5186681340834358107 -->
<g id="node42" class="node">
<title>&#45;5186681340834358107</title>
<polygon fill="none" stroke="black" points="830.53,-1311.2 776.53,-1311.2 776.53,-1275.2 830.53,-1275.2 830.53,-1311.2"/>
<text text-anchor="middle" x="803.53" y="-1289" font-family="Helvetica,sans-Serif" font-size="14.00">0</text>
</g>
<!-- &#45;5971584819185794861&#45;&gt;&#45;5186681340834358107 -->
<g id="edge41" class="edge">
<title>&#45;5971584819185794861&#45;&gt;&#45;5186681340834358107</title>
<path fill="none" stroke="black" d="M840.14,-1225C831.84,-1240.24 823.99,-1254.64 817.71,-1266.17"/>
<polygon fill="black" stroke="black" points="814.53,-1264.69 812.82,-1275.14 820.68,-1268.04 814.53,-1264.69"/>
</g>
<!-- &#45;9200329181559528757 -->
<g id="node49" class="node">
<title>&#45;9200329181559528757</title>
<ellipse fill="none" stroke="black" cx="508.53" cy="-1458.07" rx="110.74" ry="110.74"/>
<text text-anchor="middle" x="508.53" y="-1453.87" font-family="Helvetica,sans-Serif" font-size="14.00">series&#45;groupby&#45;var&#45;agg</text>
</g>
<!-- &#45;5186681340834358107&#45;&gt;&#45;9200329181559528757 -->
<g id="edge52" class="edge">
<title>&#45;5186681340834358107&#45;&gt;&#45;9200329181559528757</title>
<path fill="none" stroke="black" d="M776.3,-1309.23C739.6,-1329.49 672.17,-1366.72 614.15,-1398.75"/>
<polygon fill="black" stroke="black" points="612.36,-1395.74 605.3,-1403.64 615.74,-1401.87 612.36,-1395.74"/>
</g>
<!-- 8366988703902497143 -->
<g id="node44" class="node">
<title>8366988703902497143</title>
<polygon fill="none" stroke="black" points="240.53,-1311.2 186.53,-1311.2 186.53,-1275.2 240.53,-1275.2 240.53,-1311.2"/>
<text text-anchor="middle" x="213.53" y="-1289" font-family="Helvetica,sans-Serif" font-size="14.00">1</text>
</g>
<!-- &#45;1732265646746902253&#45;&gt;8366988703902497143 -->
<g id="edge43" class="edge">
<title>&#45;1732265646746902253&#45;&gt;8366988703902497143</title>
<path fill="none" stroke="black" d="M177.3,-1225C185.52,-1240.24 193.28,-1254.64 199.5,-1266.17"/>
<polygon fill="black" stroke="black" points="196.51,-1268 204.33,-1275.14 202.67,-1264.68 196.51,-1268"/>
</g>
<!-- 8366988703902497143&#45;&gt;&#45;9200329181559528757 -->
<g id="edge53" class="edge">
<title>8366988703902497143&#45;&gt;&#45;9200329181559528757</title>
<path fill="none" stroke="black" d="M240.75,-1309.23C277.45,-1329.49 344.89,-1366.72 402.9,-1398.75"/>
<polygon fill="black" stroke="black" points="401.31,-1401.87 411.75,-1403.64 404.69,-1395.74 401.31,-1401.87"/>
</g>
<!-- &#45;3572114613705056048 -->
<g id="node46" class="node">
<title>&#45;3572114613705056048</title>
<polygon fill="none" stroke="black" points="453.53,-1311.2 399.53,-1311.2 399.53,-1275.2 453.53,-1275.2 453.53,-1311.2"/>
<text text-anchor="middle" x="426.53" y="-1289" font-family="Helvetica,sans-Serif" font-size="14.00">2</text>
</g>
<!-- 5352456563824790322&#45;&gt;&#45;3572114613705056048 -->
<g id="edge45" class="edge">
<title>5352456563824790322&#45;&gt;&#45;3572114613705056048</title>
<path fill="none" stroke="black" d="M411.01,-1235.23C414,-1246.23 416.8,-1256.5 419.18,-1265.22"/>
<polygon fill="black" stroke="black" points="415.84,-1266.28 421.84,-1275.01 422.59,-1264.44 415.84,-1266.28"/>
</g>
<!-- &#45;3572114613705056048&#45;&gt;&#45;9200329181559528757 -->
<g id="edge50" class="edge">
<title>&#45;3572114613705056048&#45;&gt;&#45;9200329181559528757</title>
<path fill="none" stroke="black" d="M435.15,-1311.32C440.15,-1321.26 446.93,-1334.72 454.34,-1349.45"/>
<polygon fill="black" stroke="black" points="451.41,-1351.41 459.04,-1358.77 457.66,-1348.26 451.41,-1351.41"/>
</g>
<!-- &#45;8465188642677752414 -->
<g id="node48" class="node">
<title>&#45;8465188642677752414</title>
<polygon fill="none" stroke="black" points="618.53,-1311.2 564.53,-1311.2 564.53,-1275.2 618.53,-1275.2 618.53,-1311.2"/>
<text text-anchor="middle" x="591.53" y="-1289" font-family="Helvetica,sans-Serif" font-size="14.00">3</text>
</g>
<!-- &#45;7522750522622414112&#45;&gt;&#45;8465188642677752414 -->
<g id="edge47" class="edge">
<title>&#45;7522750522622414112&#45;&gt;&#45;8465188642677752414</title>
<path fill="none" stroke="black" d="M607.05,-1235.23C604.05,-1246.23 601.25,-1256.5 598.88,-1265.22"/>
<polygon fill="black" stroke="black" points="595.46,-1264.44 596.21,-1275.01 602.21,-1266.28 595.46,-1264.44"/>
</g>
<!-- &#45;8465188642677752414&#45;&gt;&#45;9200329181559528757 -->
<g id="edge51" class="edge">
<title>&#45;8465188642677752414&#45;&gt;&#45;9200329181559528757</title>
<path fill="none" stroke="black" d="M582.8,-1311.32C577.73,-1321.26 570.88,-1334.72 563.37,-1349.45"/>
<polygon fill="black" stroke="black" points="560.04,-1348.27 558.62,-1358.77 566.28,-1351.45 560.04,-1348.27"/>
</g>
<!-- &#45;1577527550590779289 -->
<g id="node50" class="node">
<title>&#45;1577527550590779289</title>
<polygon fill="none" stroke="black" points="535.53,-1640.94 481.53,-1640.94 481.53,-1604.94 535.53,-1604.94 535.53,-1640.94"/>
<text text-anchor="middle" x="508.53" y="-1618.74" font-family="Helvetica,sans-Serif" font-size="14.00">0</text>
</g>
<!-- &#45;9200329181559528757&#45;&gt;&#45;1577527550590779289 -->
<g id="edge49" class="edge">
<title>&#45;9200329181559528757&#45;&gt;&#45;1577527550590779289</title>
<path fill="none" stroke="black" d="M508.53,-1569.06C508.53,-1578.27 508.53,-1586.93 508.53,-1594.46"/>
<polygon fill="black" stroke="black" points="505.03,-1594.63 508.53,-1604.63 512.03,-1594.63 505.03,-1594.63"/>
</g>
<!-- &#45;1125045583034562367 -->
<g id="node51" class="node">
<title>&#45;1125045583034562367</title>
<ellipse fill="none" stroke="black" cx="508.53" cy="-1719.64" rx="42.91" ry="42.91"/>
<text text-anchor="middle" x="508.53" y="-1715.44" font-family="Helvetica,sans-Serif" font-size="14.00">getitem</text>
</g>
<!-- &#45;1577527550590779289&#45;&gt;&#45;1125045583034562367 -->
<g id="edge55" class="edge">
<title>&#45;1577527550590779289&#45;&gt;&#45;1125045583034562367</title>
<path fill="none" stroke="black" d="M508.53,-1641.31C508.53,-1648.52 508.53,-1657.32 508.53,-1666.36"/>
<polygon fill="black" stroke="black" points="505.03,-1666.59 508.53,-1676.59 512.03,-1666.59 505.03,-1666.59"/>
</g>
<!-- &#45;2323159877256688395 -->
<g id="node52" class="node">
<title>&#45;2323159877256688395</title>
<polygon fill="none" stroke="black" points="535.53,-1834.35 481.53,-1834.35 481.53,-1798.35 535.53,-1798.35 535.53,-1834.35"/>
<text text-anchor="middle" x="508.53" y="-1812.15" font-family="Helvetica,sans-Serif" font-size="14.00">0</text>
</g>
<!-- &#45;1125045583034562367&#45;&gt;&#45;2323159877256688395 -->
<g id="edge54" class="edge">
<title>&#45;1125045583034562367&#45;&gt;&#45;2323159877256688395</title>
<path fill="none" stroke="black" d="M508.53,-1762.46C508.53,-1771.04 508.53,-1779.87 508.53,-1787.8"/>
<polygon fill="black" stroke="black" points="505.03,-1787.94 508.53,-1797.94 512.03,-1787.94 505.03,-1787.94"/>
</g>
<!-- 6070297924542039617 -->
<g id="node53" class="node">
<title>6070297924542039617</title>
<ellipse fill="none" stroke="black" cx="508.53" cy="-1897.48" rx="27.27" ry="27.27"/>
<text text-anchor="middle" x="508.53" y="-1893.28" font-family="Helvetica,sans-Serif" font-size="14.00">sqrt</text>
</g>
<!-- &#45;2323159877256688395&#45;&gt;6070297924542039617 -->
<g id="edge57" class="edge">
<title>&#45;2323159877256688395&#45;&gt;6070297924542039617</title>
<path fill="none" stroke="black" d="M508.53,-1834.52C508.53,-1842.03 508.53,-1851.15 508.53,-1860.06"/>
<polygon fill="black" stroke="black" points="505.03,-1860.31 508.53,-1870.31 512.03,-1860.31 505.03,-1860.31"/>
</g>
<!-- &#45;1259119323008659494 -->
<g id="node54" class="node">
<title>&#45;1259119323008659494</title>
<polygon fill="none" stroke="black" points="535.53,-1996.61 481.53,-1996.61 481.53,-1960.61 535.53,-1960.61 535.53,-1996.61"/>
<text text-anchor="middle" x="508.53" y="-1974.41" font-family="Helvetica,sans-Serif" font-size="14.00">0</text>
</g>
<!-- 6070297924542039617&#45;&gt;&#45;1259119323008659494 -->
<g id="edge56" class="edge">
<title>6070297924542039617&#45;&gt;&#45;1259119323008659494</title>
<path fill="none" stroke="black" d="M508.53,-1924.83C508.53,-1932.96 508.53,-1941.93 508.53,-1950.13"/>
<polygon fill="black" stroke="black" points="505.03,-1950.34 508.53,-1960.34 512.03,-1950.34 505.03,-1950.34"/>
</g>
</g>
</svg>
