<?xml version="1.0" encoding="UTF-8" standalone="no"?>
<!DOCTYPE svg PUBLIC "-//W3C//DTD SVG 1.1//EN"
 "http://www.w3.org/Graphics/SVG/1.1/DTD/svg11.dtd">
<!-- Generated by graphviz version 2.50.0 (0)
 -->
<!-- Pages: 1 -->
<svg width="674pt" height="176pt"
 viewBox="0.00 0.00 674.13 176.13" xmlns="http://www.w3.org/2000/svg" xmlns:xlink="http://www.w3.org/1999/xlink">
<g id="graph0" class="graph" transform="scale(1 1) rotate(0) translate(4 172.13)">
<polygon fill="white" stroke="transparent" points="-4,4 -4,-172.13 670.13,-172.13 670.13,4 -4,4"/>
<!-- 7258259034073274107 -->
<g id="node1" class="node">
<title>7258259034073274107</title>
<ellipse fill="none" stroke="black" cx="48.07" cy="-48.07" rx="48.13" ry="48.13"/>
<text text-anchor="middle" x="48.07" y="-43.87" font-family="Helvetica,sans-Serif" font-size="14.00">read&#45;csv</text>
</g>
<!-- 4275488917157992745 -->
<g id="node2" class="node">
<title>4275488917157992745</title>
<polygon fill="none" stroke="black" points="75.07,-168.13 21.07,-168.13 21.07,-132.13 75.07,-132.13 75.07,-168.13"/>
<text text-anchor="middle" x="48.07" y="-145.93" font-family="Helvetica,sans-Serif" font-size="14.00">0</text>
</g>
<!-- 7258259034073274107&#45;&gt;4275488917157992745 -->
<g id="edge1" class="edge">
<title>7258259034073274107&#45;&gt;4275488917157992745</title>
<path fill="none" stroke="black" d="M48.07,-96.17C48.07,-104.95 48.07,-113.85 48.07,-121.79"/>
<polygon fill="black" stroke="black" points="44.57,-121.91 48.07,-131.91 51.57,-121.91 44.57,-121.91"/>
</g>
<!-- 6221419621800953464 -->
<g id="node3" class="node">
<title>6221419621800953464</title>
<ellipse fill="none" stroke="black" cx="162.07" cy="-48.07" rx="48.13" ry="48.13"/>
<text text-anchor="middle" x="162.07" y="-43.87" font-family="Helvetica,sans-Serif" font-size="14.00">read&#45;csv</text>
</g>
<!-- &#45;5015942494799071749 -->
<g id="node4" class="node">
<title>&#45;5015942494799071749</title>
<polygon fill="none" stroke="black" points="189.07,-168.13 135.07,-168.13 135.07,-132.13 189.07,-132.13 189.07,-168.13"/>
<text text-anchor="middle" x="162.07" y="-145.93" font-family="Helvetica,sans-Serif" font-size="14.00">1</text>
</g>
<!-- 6221419621800953464&#45;&gt;&#45;5015942494799071749 -->
<g id="edge2" class="edge">
<title>6221419621800953464&#45;&gt;&#45;5015942494799071749</title>
<path fill="none" stroke="black" d="M162.07,-96.17C162.07,-104.95 162.07,-113.85 162.07,-121.79"/>
<polygon fill="black" stroke="black" points="158.57,-121.91 162.07,-131.91 165.57,-121.91 158.57,-121.91"/>
</g>
<!-- 5417292716652380422 -->
<g id="node5" class="node">
<title>5417292716652380422</title>
<ellipse fill="none" stroke="black" cx="276.07" cy="-48.07" rx="48.13" ry="48.13"/>
<text text-anchor="middle" x="276.07" y="-43.87" font-family="Helvetica,sans-Serif" font-size="14.00">read&#45;csv</text>
</g>
<!-- 1491698261302926676 -->
<g id="node6" class="node">
<title>1491698261302926676</title>
<polygon fill="none" stroke="black" points="303.07,-168.13 249.07,-168.13 249.07,-132.13 303.07,-132.13 303.07,-168.13"/>
<text text-anchor="middle" x="276.07" y="-145.93" font-family="Helvetica,sans-Serif" font-size="14.00">2</text>
</g>
<!-- 5417292716652380422&#45;&gt;1491698261302926676 -->
<g id="edge3" class="edge">
<title>5417292716652380422&#45;&gt;1491698261302926676</title>
<path fill="none" stroke="black" d="M276.07,-96.17C276.07,-104.95 276.07,-113.85 276.07,-121.79"/>
<polygon fill="black" stroke="black" points="272.57,-121.91 276.07,-131.91 279.57,-121.91 272.57,-121.91"/>
</g>
<!-- 5258254506106904902 -->
<g id="node7" class="node">
<title>5258254506106904902</title>
<ellipse fill="none" stroke="black" cx="390.07" cy="-48.07" rx="48.13" ry="48.13"/>
<text text-anchor="middle" x="390.07" y="-43.87" font-family="Helvetica,sans-Serif" font-size="14.00">read&#45;csv</text>
</g>
<!-- &#45;3401375767669769690 -->
<g id="node8" class="node">
<title>&#45;3401375767669769690</title>
<polygon fill="none" stroke="black" points="417.07,-168.13 363.07,-168.13 363.07,-132.13 417.07,-132.13 417.07,-168.13"/>
<text text-anchor="middle" x="390.07" y="-145.93" font-family="Helvetica,sans-Serif" font-size="14.00">3</text>
</g>
<!-- 5258254506106904902&#45;&gt;&#45;3401375767669769690 -->
<g id="edge4" class="edge">
<title>5258254506106904902&#45;&gt;&#45;3401375767669769690</title>
<path fill="none" stroke="black" d="M390.07,-96.17C390.07,-104.95 390.07,-113.85 390.07,-121.79"/>
<polygon fill="black" stroke="black" points="386.57,-121.91 390.07,-131.91 393.57,-121.91 386.57,-121.91"/>
</g>
<!-- &#45;8751439262681442836 -->
<g id="node9" class="node">
<title>&#45;8751439262681442836</title>
<ellipse fill="none" stroke="black" cx="504.07" cy="-48.07" rx="48.13" ry="48.13"/>
<text text-anchor="middle" x="504.07" y="-43.87" font-family="Helvetica,sans-Serif" font-size="14.00">read&#45;csv</text>
</g>
<!-- 3106264988432228735 -->
<g id="node10" class="node">
<title>3106264988432228735</title>
<polygon fill="none" stroke="black" points="531.07,-168.13 477.07,-168.13 477.07,-132.13 531.07,-132.13 531.07,-168.13"/>
<text text-anchor="middle" x="504.07" y="-145.93" font-family="Helvetica,sans-Serif" font-size="14.00">4</text>
</g>
<!-- &#45;8751439262681442836&#45;&gt;3106264988432228735 -->
<g id="edge5" class="edge">
<title>&#45;8751439262681442836&#45;&gt;3106264988432228735</title>
<path fill="none" stroke="black" d="M504.07,-96.17C504.07,-104.95 504.07,-113.85 504.07,-121.79"/>
<polygon fill="black" stroke="black" points="500.57,-121.91 504.07,-131.91 507.57,-121.91 500.57,-121.91"/>
</g>
<!-- &#45;8223348353006561304 -->
<g id="node11" class="node">
<title>&#45;8223348353006561304</title>
<ellipse fill="none" stroke="black" cx="618.07" cy="-48.07" rx="48.13" ry="48.13"/>
<text text-anchor="middle" x="618.07" y="-43.87" font-family="Helvetica,sans-Serif" font-size="14.00">read&#45;csv</text>
</g>
<!-- &#45;8832838329175324456 -->
<g id="node12" class="node">
<title>&#45;8832838329175324456</title>
<polygon fill="none" stroke="black" points="645.07,-168.13 591.07,-168.13 591.07,-132.13 645.07,-132.13 645.07,-168.13"/>
<text text-anchor="middle" x="618.07" y="-145.93" font-family="Helvetica,sans-Serif" font-size="14.00">5</text>
</g>
<!-- &#45;8223348353006561304&#45;&gt;&#45;8832838329175324456 -->
<g id="edge6" class="edge">
<title>&#45;8223348353006561304&#45;&gt;&#45;8832838329175324456</title>
<path fill="none" stroke="black" d="M618.07,-96.17C618.07,-104.95 618.07,-113.85 618.07,-121.79"/>
<polygon fill="black" stroke="black" points="614.57,-121.91 618.07,-131.91 621.57,-121.91 614.57,-121.91"/>
</g>
</g>
</svg>
