<?xml version="1.0" encoding="UTF-8" standalone="no"?>
<!DOCTYPE svg PUBLIC "-//W3C//DTD SVG 1.1//EN"
 "http://www.w3.org/Graphics/SVG/1.1/DTD/svg11.dtd">
<!-- Generated by graphviz version 2.50.0 (0)
 -->
<!-- Pages: 1 -->
<svg width="620pt" height="776pt"
 viewBox="0.00 0.00 620.28 775.76" xmlns="http://www.w3.org/2000/svg" xmlns:xlink="http://www.w3.org/1999/xlink">
<g id="graph0" class="graph" transform="scale(1 1) rotate(0) translate(4 771.76)">
<polygon fill="white" stroke="transparent" points="-4,4 -4,-771.76 616.28,-771.76 616.28,4 -4,4"/>
<!-- 2206493880722947980 -->
<g id="node1" class="node">
<title>2206493880722947980</title>
<ellipse fill="none" stroke="black" cx="65.84" cy="-480.01" rx="27.3" ry="27.3"/>
<text text-anchor="middle" x="65.84" y="-475.81" font-family="Helvetica,sans-Serif" font-size="14.00">add</text>
</g>
<!-- &#45;5529018357102878015 -->
<g id="node2" class="node">
<title>&#45;5529018357102878015</title>
<polygon fill="none" stroke="black" points="92.84,-605.46 38.84,-605.46 38.84,-569.46 92.84,-569.46 92.84,-605.46"/>
<text text-anchor="middle" x="65.84" y="-583.26" font-family="Helvetica,sans-Serif" font-size="14.00">(0, 0)</text>
</g>
<!-- 2206493880722947980&#45;&gt;&#45;5529018357102878015 -->
<g id="edge1" class="edge">
<title>2206493880722947980&#45;&gt;&#45;5529018357102878015</title>
<path fill="none" stroke="black" d="M65.84,-507.35C65.84,-523.11 65.84,-543.11 65.84,-559.06"/>
<polygon fill="black" stroke="black" points="62.34,-559.35 65.84,-569.35 69.34,-559.35 62.34,-559.35"/>
</g>
<!-- &#45;1576627941940601676 -->
<g id="node3" class="node">
<title>&#45;1576627941940601676</title>
<polygon fill="none" stroke="black" points="126.84,-390.57 72.84,-390.57 72.84,-354.57 126.84,-354.57 126.84,-390.57"/>
<text text-anchor="middle" x="99.84" y="-368.37" font-family="Helvetica,sans-Serif" font-size="14.00">(0, 0)</text>
</g>
<!-- &#45;1576627941940601676&#45;&gt;2206493880722947980 -->
<g id="edge2" class="edge">
<title>&#45;1576627941940601676&#45;&gt;2206493880722947980</title>
<path fill="none" stroke="black" d="M94.22,-390.98C89.54,-405.49 82.74,-426.61 76.96,-444.52"/>
<polygon fill="black" stroke="black" points="73.62,-443.49 73.88,-454.08 80.28,-445.64 73.62,-443.49"/>
</g>
<!-- 6287261166597693717 -->
<g id="node4" class="node">
<title>6287261166597693717</title>
<polygon fill="none" stroke="black" points="78.84,-175.68 24.84,-175.68 24.84,-139.68 78.84,-139.68 78.84,-175.68"/>
<text text-anchor="middle" x="51.84" y="-153.48" font-family="Helvetica,sans-Serif" font-size="14.00">(0, 0)</text>
</g>
<!-- 6287261166597693717&#45;&gt;2206493880722947980 -->
<g id="edge3" class="edge">
<title>6287261166597693717&#45;&gt;2206493880722947980</title>
<path fill="none" stroke="black" d="M51.43,-175.86C51.21,-186.23 50.95,-199.71 50.84,-211.68 50.39,-259.18 48.62,-271.11 50.84,-318.57 52.83,-361.25 57.78,-410.11 61.46,-442.59"/>
<polygon fill="black" stroke="black" points="58.03,-443.41 62.65,-452.94 64.98,-442.61 58.03,-443.41"/>
</g>
<!-- 2901452390863003570 -->
<g id="node21" class="node">
<title>2901452390863003570</title>
<ellipse fill="none" stroke="black" cx="112.84" cy="-265.12" rx="53.39" ry="53.39"/>
<text text-anchor="middle" x="112.84" y="-260.92" font-family="Helvetica,sans-Serif" font-size="14.00">transpose</text>
</g>
<!-- 6287261166597693717&#45;&gt;2901452390863003570 -->
<g id="edge18" class="edge">
<title>6287261166597693717&#45;&gt;2901452390863003570</title>
<path fill="none" stroke="black" d="M61.91,-176.09C67.3,-185.41 74.27,-197.45 81.31,-209.62"/>
<polygon fill="black" stroke="black" points="78.39,-211.57 86.43,-218.47 84.45,-208.06 78.39,-211.57"/>
</g>
<!-- &#45;9155527982414911061 -->
<g id="node5" class="node">
<title>&#45;9155527982414911061</title>
<ellipse fill="none" stroke="black" cx="283.84" cy="-668.61" rx="27.3" ry="27.3"/>
<text text-anchor="middle" x="283.84" y="-664.41" font-family="Helvetica,sans-Serif" font-size="14.00">add</text>
</g>
<!-- 978622398999120410 -->
<g id="node6" class="node">
<title>978622398999120410</title>
<polygon fill="none" stroke="black" points="310.84,-767.76 256.84,-767.76 256.84,-731.76 310.84,-731.76 310.84,-767.76"/>
<text text-anchor="middle" x="283.84" y="-745.56" font-family="Helvetica,sans-Serif" font-size="14.00">(0, 1)</text>
</g>
<!-- &#45;9155527982414911061&#45;&gt;978622398999120410 -->
<g id="edge4" class="edge">
<title>&#45;9155527982414911061&#45;&gt;978622398999120410</title>
<path fill="none" stroke="black" d="M283.84,-695.96C283.84,-704.09 283.84,-713.06 283.84,-721.27"/>
<polygon fill="black" stroke="black" points="280.34,-721.48 283.84,-731.48 287.34,-721.48 280.34,-721.48"/>
</g>
<!-- 4931012814161396749 -->
<g id="node7" class="node">
<title>4931012814161396749</title>
<polygon fill="none" stroke="black" points="387.84,-605.46 333.84,-605.46 333.84,-569.46 387.84,-569.46 387.84,-605.46"/>
<text text-anchor="middle" x="360.84" y="-583.26" font-family="Helvetica,sans-Serif" font-size="14.00">(0, 1)</text>
</g>
<!-- 4931012814161396749&#45;&gt;&#45;9155527982414911061 -->
<g id="edge5" class="edge">
<title>4931012814161396749&#45;&gt;&#45;9155527982414911061</title>
<path fill="none" stroke="black" d="M344.13,-605.63C334.04,-616 320.98,-629.43 309.59,-641.13"/>
<polygon fill="black" stroke="black" points="306.87,-638.92 302.4,-648.53 311.88,-643.8 306.87,-638.92"/>
</g>
<!-- 1394187137624997351 -->
<g id="node8" class="node">
<title>1394187137624997351</title>
<polygon fill="none" stroke="black" points="260.84,-175.68 206.84,-175.68 206.84,-139.68 260.84,-139.68 260.84,-175.68"/>
<text text-anchor="middle" x="233.84" y="-153.48" font-family="Helvetica,sans-Serif" font-size="14.00">(0, 1)</text>
</g>
<!-- 1394187137624997351&#45;&gt;&#45;9155527982414911061 -->
<g id="edge6" class="edge">
<title>1394187137624997351&#45;&gt;&#45;9155527982414911061</title>
<path fill="none" stroke="black" d="M225.67,-175.96C221.19,-186.14 215.94,-199.39 212.84,-211.68 195.29,-281.05 193.84,-300 193.84,-371.57 193.84,-371.57 193.84,-371.57 193.84,-481.01 193.84,-542.02 233.35,-604.1 260.01,-639.05"/>
<polygon fill="black" stroke="black" points="257.57,-641.61 266.49,-647.34 263.09,-637.3 257.57,-641.61"/>
</g>
<!-- 8951037535073453034 -->
<g id="node23" class="node">
<title>8951037535073453034</title>
<ellipse fill="none" stroke="black" cx="274.84" cy="-265.12" rx="53.39" ry="53.39"/>
<text text-anchor="middle" x="274.84" y="-260.92" font-family="Helvetica,sans-Serif" font-size="14.00">transpose</text>
</g>
<!-- 1394187137624997351&#45;&gt;8951037535073453034 -->
<g id="edge22" class="edge">
<title>1394187137624997351&#45;&gt;8951037535073453034</title>
<path fill="none" stroke="black" d="M240.61,-176.09C243.81,-184.32 247.84,-194.68 252,-205.38"/>
<polygon fill="black" stroke="black" points="248.78,-206.77 255.67,-214.82 255.31,-204.23 248.78,-206.77"/>
</g>
<!-- &#45;4071686636979532129 -->
<g id="node9" class="node">
<title>&#45;4071686636979532129</title>
<ellipse fill="none" stroke="black" cx="274.84" cy="-480.01" rx="27.3" ry="27.3"/>
<text text-anchor="middle" x="274.84" y="-475.81" font-family="Helvetica,sans-Serif" font-size="14.00">add</text>
</g>
<!-- &#45;3567718820858755580 -->
<g id="node10" class="node">
<title>&#45;3567718820858755580</title>
<polygon fill="none" stroke="black" points="301.84,-605.46 247.84,-605.46 247.84,-569.46 301.84,-569.46 301.84,-605.46"/>
<text text-anchor="middle" x="274.84" y="-583.26" font-family="Helvetica,sans-Serif" font-size="14.00">(1, 0)</text>
</g>
<!-- &#45;4071686636979532129&#45;&gt;&#45;3567718820858755580 -->
<g id="edge7" class="edge">
<title>&#45;4071686636979532129&#45;&gt;&#45;3567718820858755580</title>
<path fill="none" stroke="black" d="M274.84,-507.35C274.84,-523.11 274.84,-543.11 274.84,-559.06"/>
<polygon fill="black" stroke="black" points="271.34,-559.35 274.84,-569.35 278.34,-559.35 271.34,-559.35"/>
</g>
<!-- &#45;4013685788680847369 -->
<g id="node11" class="node">
<title>&#45;4013685788680847369</title>
<polygon fill="none" stroke="black" points="301.84,-390.57 247.84,-390.57 247.84,-354.57 301.84,-354.57 301.84,-390.57"/>
<text text-anchor="middle" x="274.84" y="-368.37" font-family="Helvetica,sans-Serif" font-size="14.00">(1, 0)</text>
</g>
<!-- &#45;4013685788680847369&#45;&gt;&#45;4071686636979532129 -->
<g id="edge8" class="edge">
<title>&#45;4013685788680847369&#45;&gt;&#45;4071686636979532129</title>
<path fill="none" stroke="black" d="M274.84,-390.98C274.84,-404.83 274.84,-424.71 274.84,-442.07"/>
<polygon fill="black" stroke="black" points="271.34,-442.48 274.84,-452.48 278.34,-442.48 271.34,-442.48"/>
</g>
<!-- &#45;1819936267409424065 -->
<g id="node12" class="node">
<title>&#45;1819936267409424065</title>
<polygon fill="none" stroke="black" points="400.84,-390.57 346.84,-390.57 346.84,-354.57 400.84,-354.57 400.84,-390.57"/>
<text text-anchor="middle" x="373.84" y="-368.37" font-family="Helvetica,sans-Serif" font-size="14.00">(1, 0)</text>
</g>
<!-- &#45;1819936267409424065&#45;&gt;&#45;4071686636979532129 -->
<g id="edge9" class="edge">
<title>&#45;1819936267409424065&#45;&gt;&#45;4071686636979532129</title>
<path fill="none" stroke="black" d="M351.11,-390.72C338.82,-400.54 323.76,-413.48 311.84,-426.57 305.8,-433.2 299.9,-440.84 294.65,-448.21"/>
<polygon fill="black" stroke="black" points="291.62,-446.44 288.81,-456.66 297.37,-450.42 291.62,-446.44"/>
</g>
<!-- 7827900683522253230 -->
<g id="node22" class="node">
<title>7827900683522253230</title>
<ellipse fill="none" stroke="black" cx="373.84" cy="-480.01" rx="53.39" ry="53.39"/>
<text text-anchor="middle" x="373.84" y="-475.81" font-family="Helvetica,sans-Serif" font-size="14.00">transpose</text>
</g>
<!-- &#45;1819936267409424065&#45;&gt;7827900683522253230 -->
<g id="edge20" class="edge">
<title>&#45;1819936267409424065&#45;&gt;7827900683522253230</title>
<path fill="none" stroke="black" d="M373.84,-390.98C373.84,-398.2 373.84,-407.05 373.84,-416.33"/>
<polygon fill="black" stroke="black" points="370.34,-416.5 373.84,-426.5 377.34,-416.5 370.34,-416.5"/>
</g>
<!-- 8294771946870233194 -->
<g id="node13" class="node">
<title>8294771946870233194</title>
<ellipse fill="none" stroke="black" cx="504.84" cy="-480.01" rx="27.3" ry="27.3"/>
<text text-anchor="middle" x="504.84" y="-475.81" font-family="Helvetica,sans-Serif" font-size="14.00">add</text>
</g>
<!-- &#45;1458435447741125283 -->
<g id="node14" class="node">
<title>&#45;1458435447741125283</title>
<polygon fill="none" stroke="black" points="531.84,-605.46 477.84,-605.46 477.84,-569.46 531.84,-569.46 531.84,-605.46"/>
<text text-anchor="middle" x="504.84" y="-583.26" font-family="Helvetica,sans-Serif" font-size="14.00">(1, 1)</text>
</g>
<!-- 8294771946870233194&#45;&gt;&#45;1458435447741125283 -->
<g id="edge10" class="edge">
<title>8294771946870233194&#45;&gt;&#45;1458435447741125283</title>
<path fill="none" stroke="black" d="M504.84,-507.35C504.84,-523.11 504.84,-543.11 504.84,-559.06"/>
<polygon fill="black" stroke="black" points="501.34,-559.35 504.84,-569.35 508.34,-559.35 501.34,-559.35"/>
</g>
<!-- 4687704488692574360 -->
<g id="node15" class="node">
<title>4687704488692574360</title>
<polygon fill="none" stroke="black" points="544.84,-175.68 490.84,-175.68 490.84,-139.68 544.84,-139.68 544.84,-175.68"/>
<text text-anchor="middle" x="517.84" y="-153.48" font-family="Helvetica,sans-Serif" font-size="14.00">(1, 1)</text>
</g>
<!-- 4687704488692574360&#45;&gt;8294771946870233194 -->
<g id="edge11" class="edge">
<title>4687704488692574360&#45;&gt;8294771946870233194</title>
<path fill="none" stroke="black" d="M509.12,-175.84C504.46,-185.98 499.21,-199.23 496.84,-211.68 481.28,-293.18 491.34,-391.15 498.83,-442.89"/>
<polygon fill="black" stroke="black" points="495.39,-443.54 500.34,-452.91 502.31,-442.5 495.39,-443.54"/>
</g>
<!-- 8989730457010288784 -->
<g id="node24" class="node">
<title>8989730457010288784</title>
<ellipse fill="none" stroke="black" cx="558.84" cy="-265.12" rx="53.39" ry="53.39"/>
<text text-anchor="middle" x="558.84" y="-260.92" font-family="Helvetica,sans-Serif" font-size="14.00">transpose</text>
</g>
<!-- 4687704488692574360&#45;&gt;8989730457010288784 -->
<g id="edge24" class="edge">
<title>4687704488692574360&#45;&gt;8989730457010288784</title>
<path fill="none" stroke="black" d="M524.61,-176.09C527.81,-184.32 531.84,-194.68 536,-205.38"/>
<polygon fill="black" stroke="black" points="532.78,-206.77 539.67,-214.82 539.31,-204.23 532.78,-206.77"/>
</g>
<!-- 2493954967421151056 -->
<g id="node16" class="node">
<title>2493954967421151056</title>
<polygon fill="none" stroke="black" points="572.84,-390.57 518.84,-390.57 518.84,-354.57 572.84,-354.57 572.84,-390.57"/>
<text text-anchor="middle" x="545.84" y="-368.37" font-family="Helvetica,sans-Serif" font-size="14.00">(1, 1)</text>
</g>
<!-- 2493954967421151056&#45;&gt;8294771946870233194 -->
<g id="edge12" class="edge">
<title>2493954967421151056&#45;&gt;8294771946870233194</title>
<path fill="none" stroke="black" d="M539.07,-390.98C533.39,-405.59 525.1,-426.89 518.11,-444.88"/>
<polygon fill="black" stroke="black" points="514.74,-443.89 514.38,-454.47 521.27,-446.42 514.74,-443.89"/>
</g>
<!-- &#45;5374316802896116385 -->
<g id="node17" class="node">
<title>&#45;5374316802896116385</title>
<ellipse fill="none" stroke="black" cx="51.84" cy="-51.84" rx="51.68" ry="51.68"/>
<text text-anchor="middle" x="51.84" y="-47.64" font-family="Helvetica,sans-Serif" font-size="14.00">ones_like</text>
</g>
<!-- &#45;5374316802896116385&#45;&gt;6287261166597693717 -->
<g id="edge13" class="edge">
<title>&#45;5374316802896116385&#45;&gt;6287261166597693717</title>
<path fill="none" stroke="black" d="M51.84,-103.84C51.84,-112.73 51.84,-121.65 51.84,-129.57"/>
<polygon fill="black" stroke="black" points="48.34,-129.64 51.84,-139.64 55.34,-129.64 48.34,-129.64"/>
</g>
<!-- &#45;5533355013441591905 -->
<g id="node18" class="node">
<title>&#45;5533355013441591905</title>
<ellipse fill="none" stroke="black" cx="233.84" cy="-51.84" rx="51.68" ry="51.68"/>
<text text-anchor="middle" x="233.84" y="-47.64" font-family="Helvetica,sans-Serif" font-size="14.00">ones_like</text>
</g>
<!-- &#45;5533355013441591905&#45;&gt;1394187137624997351 -->
<g id="edge14" class="edge">
<title>&#45;5533355013441591905&#45;&gt;1394187137624997351</title>
<path fill="none" stroke="black" d="M233.84,-103.84C233.84,-112.73 233.84,-121.65 233.84,-129.57"/>
<polygon fill="black" stroke="black" points="230.34,-129.64 233.84,-139.64 237.34,-129.64 230.34,-129.64"/>
</g>
<!-- 222948569687940270 -->
<g id="node19" class="node">
<title>222948569687940270</title>
<ellipse fill="none" stroke="black" cx="397.84" cy="-265.12" rx="51.68" ry="51.68"/>
<text text-anchor="middle" x="397.84" y="-260.92" font-family="Helvetica,sans-Serif" font-size="14.00">ones_like</text>
</g>
<!-- 222948569687940270&#45;&gt;&#45;1819936267409424065 -->
<g id="edge15" class="edge">
<title>222948569687940270&#45;&gt;&#45;1819936267409424065</title>
<path fill="none" stroke="black" d="M386.54,-315.76C384.29,-325.63 382.01,-335.65 380.02,-344.42"/>
<polygon fill="black" stroke="black" points="376.55,-343.88 377.74,-354.41 383.38,-345.44 376.55,-343.88"/>
</g>
<!-- 7307670780259632845 -->
<g id="node20" class="node">
<title>7307670780259632845</title>
<ellipse fill="none" stroke="black" cx="517.84" cy="-51.84" rx="51.68" ry="51.68"/>
<text text-anchor="middle" x="517.84" y="-47.64" font-family="Helvetica,sans-Serif" font-size="14.00">ones_like</text>
</g>
<!-- 7307670780259632845&#45;&gt;4687704488692574360 -->
<g id="edge16" class="edge">
<title>7307670780259632845&#45;&gt;4687704488692574360</title>
<path fill="none" stroke="black" d="M517.84,-103.84C517.84,-112.73 517.84,-121.65 517.84,-129.57"/>
<polygon fill="black" stroke="black" points="514.34,-129.64 517.84,-139.64 521.34,-129.64 514.34,-129.64"/>
</g>
<!-- 2901452390863003570&#45;&gt;&#45;1576627941940601676 -->
<g id="edge17" class="edge">
<title>2901452390863003570&#45;&gt;&#45;1576627941940601676</title>
<path fill="none" stroke="black" d="M106.41,-318.23C105.31,-327.22 104.19,-336.23 103.21,-344.22"/>
<polygon fill="black" stroke="black" points="99.71,-344.03 101.96,-354.39 106.65,-344.89 99.71,-344.03"/>
</g>
<!-- 7827900683522253230&#45;&gt;4931012814161396749 -->
<g id="edge19" class="edge">
<title>7827900683522253230&#45;&gt;4931012814161396749</title>
<path fill="none" stroke="black" d="M367.41,-533.12C366.31,-542.11 365.19,-551.12 364.21,-559.11"/>
<polygon fill="black" stroke="black" points="360.71,-558.93 362.96,-569.28 367.65,-559.78 360.71,-558.93"/>
</g>
<!-- 8951037535073453034&#45;&gt;&#45;4013685788680847369 -->
<g id="edge21" class="edge">
<title>8951037535073453034&#45;&gt;&#45;4013685788680847369</title>
<path fill="none" stroke="black" d="M274.84,-318.85C274.84,-327.52 274.84,-336.2 274.84,-343.94"/>
<polygon fill="black" stroke="black" points="271.34,-344.16 274.84,-354.16 278.34,-344.16 271.34,-344.16"/>
</g>
<!-- 8989730457010288784&#45;&gt;2493954967421151056 -->
<g id="edge23" class="edge">
<title>8989730457010288784&#45;&gt;2493954967421151056</title>
<path fill="none" stroke="black" d="M552.41,-318.23C551.31,-327.22 550.19,-336.23 549.21,-344.22"/>
<polygon fill="black" stroke="black" points="545.71,-344.03 547.96,-354.39 552.65,-344.89 545.71,-344.03"/>
</g>
</g>
</svg>
